<?xml version="1.0" encoding="UTF-8"?>
<svg version="1.1" xmlns="http://www.w3.org/2000/svg" width="72" height="72">
<path d="M0 0 C11.22 0 22.44 0 34 0 C34 11.22 34 22.44 34 34 C32.68 34 31.36 34 30 34 C29.505 21.625 29.505 21.625 29 9 C27.24171875 10.8046875 25.4834375 12.609375 23.671875 14.46875 C21.96319323 16.20862144 20.25107009 17.94503584 18.53857422 19.68115234 C17.34970665 20.89014271 16.16445286 22.10269773 14.98291016 23.31884766 C13.28443584 25.06580907 11.57340094 26.79956146 9.859375 28.53125 C9.33317566 29.07809448 8.80697632 29.62493896 8.26483154 30.18835449 C6.74902344 31.70507812 6.74902344 31.70507812 4 34 C2.68 34 1.36 34 0 34 C0.38493808 29.02755242 2.91304263 26.55992067 6.34765625 23.26171875 C6.87894638 22.73608841 7.41023651 22.21045807 7.95762634 21.66889954 C9.65006582 19.99877952 11.35589996 18.34313523 13.0625 16.6875 C14.21510573 15.55496492 15.36680942 14.42151101 16.51757812 13.28710938 C19.33317366 10.51211363 22.16645777 7.7571321 25 5 C16.75 4.67 8.5 4.34 0 4 C0 2.68 0 1.36 0 0 Z " fill="#FFFFFF" transform="translate(19,19)"/>
</svg>
