<svg width="57" height="56" viewBox="0 0 57 56" fill="none" xmlns="http://www.w3.org/2000/svg">
<path d="M33.7195 42.6803C36.018 34.4385 35.1909 30.2839 31.1614 29.4857C31.7769 32.2843 32.4693 35.1598 29.5265 37.1024C27.9878 38.1218 26.7664 37.7275 24.0352 35.631C22.7753 38.218 23.1985 40.7954 23.7851 43.5554C19.871 42.8726 16.7839 41.2474 15.351 37.4679C13.8699 34.025 14.6874 30.0339 17.3802 27.4373C18.3226 26.4756 19.342 25.6004 20.4288 24.8118C24.8334 21.5036 25.6893 18.2915 23.362 13.3195C23.2562 13.031 23.1696 12.7425 23.1119 12.4443C28.007 13.1848 32.6424 15.1563 36.5854 18.1569C45.1734 25.1773 44.1348 37.8045 34.6524 42.4399C34.3254 42.4591 34.0176 42.536 33.7195 42.6803Z" fill="#EE4854"/>
</svg>
