<svg width="58" height="56" viewBox="0 0 58 56" fill="none" xmlns="http://www.w3.org/2000/svg">
<path d="M28.9488 12.5254C21.0067 12.5254 21.5026 15.9504 21.5026 15.9504L21.5114 19.4988H29.0904V20.5642H18.5011C18.5011 20.5642 13.419 19.991 13.419 27.96C13.419 35.9292 17.8548 35.6465 17.8548 35.6465H20.5021V31.9485C20.5021 31.9485 20.3594 27.5374 24.8671 27.5374H32.3841C32.3841 27.5374 36.6074 27.6052 36.6074 23.4784V16.6549C36.6074 16.6549 37.2488 12.5254 28.9488 12.5254ZM24.7697 14.9116C24.9488 14.9115 25.1262 14.9464 25.2917 15.0145C25.4572 15.0826 25.6075 15.1825 25.7342 15.3084C25.8608 15.4343 25.9612 15.5839 26.0297 15.7484C26.0982 15.913 26.1333 16.0894 26.1332 16.2675C26.1333 16.4456 26.0982 16.622 26.0297 16.7866C25.9612 16.9511 25.8608 17.1007 25.7342 17.2266C25.6075 17.3526 25.4572 17.4524 25.2917 17.5205C25.1262 17.5886 24.9488 17.6235 24.7697 17.6234C24.5906 17.6235 24.4132 17.5886 24.2477 17.5205C24.0823 17.4524 23.9319 17.3526 23.8052 17.2266C23.6786 17.1007 23.5782 16.9511 23.5097 16.7866C23.4413 16.622 23.4061 16.4456 23.4063 16.2675C23.4061 16.0894 23.4413 15.913 23.5097 15.7484C23.5782 15.5839 23.6786 15.4343 23.8052 15.3084C23.9319 15.1825 24.0823 15.0826 24.2477 15.0145C24.4132 14.9464 24.5906 14.9115 24.7697 14.9116Z" fill="url(#paint0_linear_1_5530)"/>
<path d="M29.1743 43.4747C37.1164 43.4747 36.6205 40.0497 36.6205 40.0497L36.6117 36.5014H29.0326V35.4361H39.6218C39.6218 35.4361 44.7039 36.0092 44.7039 28.04C44.7039 20.0709 40.2681 20.3535 40.2681 20.3535H37.6208V24.0514C37.6208 24.0514 37.7636 28.4626 33.2558 28.4626H25.7388C25.7388 28.4626 21.5156 28.3948 21.5156 32.5217V39.3453C21.5156 39.3453 20.8743 43.4747 29.1742 43.4747H29.1743ZM33.3534 41.0887C33.1743 41.0889 32.9969 41.0539 32.8314 40.9858C32.6659 40.9178 32.5155 40.8179 32.3889 40.692C32.2622 40.566 32.1618 40.4165 32.0934 40.2519C32.0249 40.0873 31.9897 39.9109 31.9899 39.7328C31.9897 39.5547 32.0249 39.3783 32.0933 39.2137C32.1618 39.0492 32.2622 38.8996 32.3888 38.7737C32.5155 38.6477 32.6659 38.5478 32.8314 38.4797C32.9969 38.4117 33.1742 38.3767 33.3534 38.3768C33.5324 38.3767 33.7098 38.4116 33.8753 38.4797C34.0408 38.5478 34.1912 38.6477 34.3178 38.7736C34.4445 38.8996 34.5449 39.0491 34.6133 39.2137C34.6818 39.3782 34.717 39.5546 34.7168 39.7327C34.717 39.9108 34.6818 40.0872 34.6133 40.2518C34.5449 40.4164 34.4445 40.5659 34.3178 40.6918C34.1912 40.8178 34.0408 40.9176 33.8753 40.9857C33.7098 41.0538 33.5324 41.0888 33.3534 41.0886V41.0887Z" fill="url(#paint1_linear_1_5530)"/>
<defs>
<linearGradient id="paint0_linear_1_5530" x1="16.4255" y1="15.3091" x2="31.8438" y2="30.6589" gradientUnits="userSpaceOnUse">
<stop stop-color="#387EB8"/>
<stop offset="1" stop-color="#366994"/>
</linearGradient>
<linearGradient id="paint1_linear_1_5530" x1="25.9418" y1="25.1107" x2="42.5035" y2="40.8545" gradientUnits="userSpaceOnUse">
<stop stop-color="#FFE052"/>
<stop offset="1" stop-color="#FFC331"/>
</linearGradient>
</defs>
</svg>
