<svg width="57" height="56" viewBox="0 0 57 56" fill="none" xmlns="http://www.w3.org/2000/svg">
<path d="M42.4666 21.6543C42.4664 21.1363 42.355 20.6786 42.1297 20.2859C41.9084 19.8995 41.5771 19.5757 41.1325 19.3198C37.4633 17.2158 33.7906 15.1183 30.1225 13.0122C29.1336 12.4445 28.1749 12.4653 27.1933 13.0412C25.7328 13.8976 18.4208 18.0636 16.242 19.3186C15.3446 19.8353 14.908 20.6258 14.9078 21.6533C14.9064 25.8844 14.9078 30.1156 14.9064 34.3467C14.9064 34.8533 15.0132 35.3022 15.2286 35.6891C15.45 36.087 15.786 36.4197 16.2408 36.6815C18.4198 37.9365 25.7327 42.1021 27.1929 42.9588C28.1749 43.535 29.1336 43.5556 30.1229 42.9878C33.791 40.8816 37.464 38.7841 41.1337 36.6802C41.5885 36.4185 41.9245 36.0856 42.1459 35.688C42.3609 35.3011 42.468 34.8523 42.468 34.3456C42.468 34.3456 42.468 25.8855 42.4666 21.6543Z" fill="#A179DC"/>
<path d="M28.7294 27.9587L15.2286 35.689C15.45 36.087 15.7861 36.4196 16.2408 36.6814C18.4198 37.9364 25.7328 42.1021 27.1929 42.9588C28.1749 43.535 29.1337 43.5556 30.1229 42.9877C33.791 40.8816 37.464 38.7841 41.1338 36.6801C41.5885 36.4185 41.9246 36.0856 42.1459 35.6879L28.7294 27.9587Z" fill="#280068"/>
<path d="M42.4666 21.6543C42.4664 21.1363 42.355 20.6786 42.1298 20.2859L28.7294 27.9589L42.1459 35.688C42.361 35.3011 42.4678 34.8523 42.468 34.3456C42.468 34.3456 42.468 25.8855 42.4666 21.6543Z" fill="#390091"/>
<path d="M36.6781 25.0691V26.514H38.1311V25.0691H38.8576V26.514H40.3106V27.2365H38.8576V28.6813H40.3106V29.4038H38.8576V30.8488H38.1311V29.4038H36.6781V30.8488H35.9516V29.4038H34.4987V28.6813H35.9516V27.2365H34.4987V26.514H35.9516V25.0691H36.6781ZM38.1311 27.2364H36.6781V28.6813H38.1311V27.2364Z" fill="white"/>
<path d="M28.759 17.8124C32.5488 17.8124 35.8577 19.8591 37.63 22.9015L37.6127 22.8723L33.1536 25.4254C32.2751 23.9463 30.6647 22.948 28.8171 22.9274L28.7588 22.9271C25.9416 22.9271 23.6575 25.1984 23.6575 28C23.6566 28.8831 23.8886 29.7509 24.3303 30.517C25.2097 32.0435 26.8627 33.0731 28.759 33.0731C30.6669 33.0731 32.3294 32.0304 33.2042 30.4876L33.1829 30.5246L37.6353 33.0895C35.8824 36.1062 32.6188 38.1466 28.873 38.1873L28.759 38.1879C24.9571 38.1879 21.6389 36.1285 19.871 33.07C19.008 31.5769 18.5142 29.846 18.5142 28C18.5142 22.3736 23.1008 17.8123 28.7588 17.8123L28.759 17.8124Z" fill="white"/>
</svg>
