<svg width="57" height="56" viewBox="0 0 57 56" fill="none" xmlns="http://www.w3.org/2000/svg">
<path d="M43.6843 19.5427C43.6955 19.5839 43.7012 19.6264 43.7013 19.6691V26.3064C43.7013 26.3916 43.6787 26.4753 43.6357 26.549C43.5928 26.6227 43.5311 26.6838 43.4567 26.7262L37.8548 29.9336V36.2908C37.8548 36.4638 37.7624 36.6235 37.6115 36.7106L25.918 43.4047C25.8912 43.4199 25.862 43.4295 25.8328 43.4398C25.8219 43.4435 25.8115 43.4501 25.8 43.4531C25.7182 43.4745 25.6323 43.4745 25.5506 43.4531C25.5372 43.4495 25.525 43.4422 25.5123 43.4374C25.4855 43.4277 25.4575 43.4193 25.432 43.4047L13.7409 36.7106C13.6666 36.6682 13.6049 36.607 13.562 36.5333C13.519 36.4596 13.4964 36.3759 13.4963 36.2908V16.3789C13.4963 16.3354 13.5024 16.293 13.5134 16.2519C13.517 16.238 13.5255 16.2253 13.5304 16.2113C13.5395 16.1859 13.548 16.1599 13.5614 16.1363C13.5706 16.1206 13.5839 16.1079 13.5949 16.0934C13.6089 16.074 13.6216 16.0541 13.6381 16.0371C13.6521 16.0232 13.6703 16.0129 13.6861 16.0008C13.7038 15.9863 13.7196 15.9706 13.7397 15.9591H13.7403L19.5861 12.612C19.6601 12.5697 19.744 12.5474 19.8294 12.5474C19.9148 12.5474 19.9987 12.5697 20.0728 12.612L25.9186 15.9591H25.9198C25.9393 15.9712 25.9557 15.9863 25.9734 16.0002C25.9892 16.0123 26.0068 16.0232 26.0208 16.0365C26.0378 16.0541 26.05 16.074 26.0646 16.0934C26.0749 16.1079 26.0889 16.1206 26.0974 16.1363C26.1114 16.1605 26.1193 16.1859 26.1291 16.2113C26.1339 16.2253 26.1425 16.238 26.1461 16.2525C26.1573 16.2937 26.163 16.3362 26.1631 16.3789V28.8157L31.0345 26.0263V19.6685C31.0345 19.6262 31.0406 19.5832 31.0515 19.5427C31.0558 19.5282 31.0637 19.5155 31.0685 19.5016C31.0783 19.4761 31.0868 19.4501 31.1002 19.4265C31.1093 19.4108 31.1227 19.3981 31.133 19.3836C31.1476 19.3642 31.1598 19.3443 31.1768 19.3273C31.1908 19.3134 31.2085 19.3031 31.2243 19.291C31.2425 19.2765 31.2583 19.2608 31.2778 19.2493H31.2784L37.1249 15.9022C37.1989 15.8598 37.2828 15.8375 37.3682 15.8375C37.4536 15.8375 37.5375 15.8598 37.6115 15.9022L43.4574 19.2493C43.478 19.2614 43.4939 19.2765 43.5121 19.2904C43.5273 19.3025 43.545 19.3134 43.5589 19.3267C43.576 19.3443 43.5881 19.3642 43.6027 19.3836C43.6137 19.3981 43.6271 19.4108 43.6356 19.4265C43.6496 19.4501 43.6575 19.4761 43.6672 19.5016C43.6727 19.5155 43.6806 19.5282 43.6843 19.5427ZM42.7268 26.0263V20.5069L40.681 21.6781L37.8548 23.2963V28.8157L42.7274 26.0263H42.7268ZM36.8809 36.0107V30.4877L34.101 32.0665L26.1625 36.5721V42.1471L36.8809 36.0107ZM14.4708 17.2167V36.0107L25.188 42.1465V36.5727L19.5892 33.4216L19.5873 33.4204L19.5849 33.4192C19.566 33.4083 19.5502 33.3926 19.5326 33.3792C19.5174 33.3671 19.4997 33.3575 19.4864 33.3442L19.4851 33.3423C19.4693 33.3272 19.4584 33.3085 19.445 33.2915C19.4328 33.2752 19.4182 33.2613 19.4085 33.2443L19.4079 33.2425C19.3969 33.2244 19.3902 33.2026 19.3823 33.182C19.3744 33.1639 19.3641 33.147 19.3592 33.1276V33.127C19.3531 33.104 19.3519 33.0798 19.3495 33.0562C19.347 33.0381 19.3422 33.0199 19.3422 33.0018V20.0061L16.5166 18.3873L14.4708 17.2173V17.2167ZM19.83 13.5908L14.9593 16.3789L19.8288 19.167L24.6989 16.3783L19.8288 13.5908H19.83ZM22.363 30.991L25.1886 29.3734V17.2167L23.1429 18.3879L20.3167 20.0061V32.1627L22.363 30.991ZM37.3682 16.881L32.4981 19.6691L37.3682 22.4572L42.2377 19.6685L37.3682 16.881ZM36.8809 23.2963L34.0547 21.6781L32.009 20.5069V26.0263L34.8346 27.6439L36.8809 28.8157V23.2963ZM25.6747 35.7342L32.818 31.6788L36.3888 29.6523L31.5223 26.866L25.9192 30.0739L20.8125 32.9975L25.6747 35.7342Z" fill="#FF2D20"/>
</svg>
