<svg width="57" height="56" viewBox="0 0 57 56" fill="none" xmlns="http://www.w3.org/2000/svg">
<path d="M31.85 23.6817L28.7213 26.5786L25.817 20.7506L27.3173 17.3997C27.6965 16.7312 28.3167 16.7224 28.6959 17.3997L31.85 23.6817Z" fill="#FFA000"/>
<path d="M28.7226 26.5774L17.0193 37.4023L25.8183 20.7507L28.7226 26.5774Z" fill="#F57F17"/>
<path d="M35.2807 19.251C35.8412 18.7201 36.4183 18.8992 36.5641 19.6534L39.6066 37.2558L29.5152 43.2806C29.1614 43.4773 28.2229 43.5543 28.2229 43.5543C28.2229 43.5543 27.3694 43.4508 27.0422 43.2717L17.0193 37.4021L35.2807 19.251Z" fill="#FFCA28"/>
<path d="M25.8183 20.7506L17.0193 37.4022L20.9407 13.0637C21.0878 12.3095 21.5177 12.2326 21.9058 12.901L25.8183 20.7506Z" fill="#FFA000"/>
</svg>
