<svg width="57" height="56" viewBox="0 0 57 56" fill="none" xmlns="http://www.w3.org/2000/svg">
<path d="M28.5893 12.5293L29.4241 14.0886C29.6118 14.3764 29.8151 14.6311 30.0547 14.8683C30.7568 15.5579 31.4114 16.2938 32.0137 17.0712C33.4283 18.9183 34.3824 20.9695 35.0638 23.1879C35.4724 24.5431 35.6943 25.9333 35.711 27.339C35.7794 31.5416 34.3306 35.1502 31.4096 38.1493C30.9345 38.6249 30.4212 39.0612 29.8748 39.454C29.5854 39.454 29.4486 39.2333 29.3293 39.0301C29.1121 38.6533 28.9675 38.2396 28.9031 37.81C28.8004 37.3016 28.733 36.7932 28.7662 36.2682V36.031C28.7427 35.9805 28.4876 12.6489 28.5893 12.5293Z" fill="#599636"/>
<path d="M28.5893 12.4778C28.5551 12.4097 28.5208 12.4613 28.4866 12.4943C28.5032 12.8346 28.384 13.1379 28.1973 13.4276C27.992 13.7153 27.7202 13.936 27.4475 14.1732C25.9322 15.4778 24.7396 17.0537 23.7845 18.8162C22.5136 21.1882 21.8586 23.7304 21.6729 26.4068C21.5878 27.3721 21.9798 30.7785 22.2858 31.7614C23.1207 34.3706 24.6203 36.557 26.5627 38.4546C27.0398 38.9115 27.5501 39.3354 28.078 39.7427C28.2315 39.7427 28.2481 39.6066 28.2833 39.5055C28.3506 39.2892 28.4019 39.0682 28.4368 38.8444L28.7789 36.3032L28.5893 12.4778Z" fill="#6CAC48"/>
<path d="M29.4241 40.4864C29.4584 40.0975 29.646 39.7748 29.8504 39.453C29.6451 39.3684 29.4926 39.2003 29.3733 39.0126C29.2705 38.835 29.1853 38.6478 29.1191 38.4536C28.8806 37.742 28.8298 36.9954 28.7613 36.2683V35.8279C28.6763 35.8959 28.6587 36.4714 28.6587 36.557C28.6089 37.3255 28.5064 38.0898 28.3517 38.8444C28.3009 39.1497 28.2667 39.454 28.078 39.7252C28.078 39.7592 28.078 39.7933 28.0946 39.8438C28.4016 40.7421 28.4857 41.6569 28.5375 42.5892V42.9294C28.5375 43.3358 28.5208 43.2502 28.8601 43.3863C28.9969 43.4369 29.1494 43.4544 29.2863 43.5555C29.3889 43.5555 29.4056 43.4709 29.4056 43.4028L29.3547 42.8439V41.2845C29.3381 41.0123 29.3889 40.7421 29.4232 40.4874L29.4241 40.4864Z" fill="#C2BFBF"/>
</svg>
