<svg width="57" height="56" viewBox="0 0 57 56" fill="none" xmlns="http://www.w3.org/2000/svg">
<path fill-rule="evenodd" clip-rule="evenodd" d="M28.3743 35.8832C37.0135 35.8832 44.0168 32.3537 44.0168 28.0001C44.0168 23.6465 37.0135 20.1169 28.3743 20.1169C19.7354 20.1169 12.7319 23.6465 12.7319 28.0001C12.7319 32.3537 19.7354 35.8832 28.3743 35.8832Z" fill="#6E81B6"/>
<path fill-rule="evenodd" clip-rule="evenodd" d="M31.5445 30.548L32.3204 26.5769C32.4955 25.6806 32.3499 25.012 31.8878 24.5896C31.4401 24.1808 30.6801 23.982 29.5645 23.982H28.2207L28.6051 22.0145C28.6123 21.9779 28.6112 21.9401 28.602 21.9039C28.5928 21.8678 28.5757 21.8341 28.5518 21.8053C28.528 21.7764 28.498 21.7532 28.4641 21.7373C28.4302 21.7214 28.3931 21.7131 28.3556 21.7131H26.501C26.3791 21.7131 26.2745 21.7991 26.2513 21.918L25.4271 26.1339C25.3522 25.6595 25.1676 25.2517 24.8722 24.9152C24.3282 24.2959 23.4677 23.982 22.3145 23.982H18.7198C18.598 23.982 18.4934 24.068 18.4701 24.1867L16.8024 32.7204C16.7878 32.7947 16.8073 32.8711 16.8557 32.9294C16.904 32.9879 16.9758 33.0216 17.0521 33.0216H18.9213C19.0431 33.0216 19.1477 32.9356 19.1709 32.8165L19.5744 30.7525H20.9658C21.6959 30.7525 22.3095 30.6739 22.7885 30.5189C23.2782 30.3605 23.7289 30.0919 24.1262 29.7221C24.4471 29.4288 24.7123 29.1004 24.9164 28.7462L24.5833 30.4512C24.5688 30.5255 24.5883 30.6022 24.6367 30.6602C24.6849 30.7187 24.757 30.7523 24.833 30.7523H26.6876C26.8095 30.7523 26.9141 30.6664 26.9373 30.5477L27.8526 25.8634H29.1252C29.6675 25.8634 29.8264 25.9708 29.8697 26.0169C29.9089 26.059 29.9902 26.2074 29.8989 26.6752L29.1612 30.451C29.1541 30.4876 29.1553 30.5253 29.1645 30.5614C29.1738 30.5975 29.191 30.6312 29.2148 30.6599C29.2387 30.6887 29.2686 30.7119 29.3025 30.7278C29.3364 30.7438 29.3734 30.7521 29.4109 30.7521H31.295C31.354 30.7523 31.4111 30.7319 31.4566 30.6947C31.5022 30.6575 31.5332 30.6056 31.5445 30.548ZM22.946 27.2668C22.8295 27.8622 22.6101 28.2867 22.2935 28.5288C21.9719 28.7754 21.4576 28.9003 20.7647 28.9003H19.9363L20.5353 25.8346H21.6065C22.3933 25.8346 22.7104 26.0018 22.8377 26.142C23.0141 26.3365 23.0516 26.7256 22.946 27.2668ZM39.3566 24.9152C38.8128 24.2959 37.9524 23.982 36.7991 23.982H33.2045C33.0825 23.982 32.9781 24.068 32.9548 24.1867L31.2872 32.7204C31.2725 32.7947 31.292 32.8711 31.3404 32.9294C31.3888 32.9877 31.4609 33.0216 31.5365 33.0216H33.4059C33.5279 33.0216 33.6323 32.9356 33.6556 32.8165L34.0591 30.7525H35.4507C36.181 30.7525 36.794 30.6739 37.2731 30.5189C37.763 30.3605 38.2138 30.0919 38.6108 29.7221C38.9422 29.4194 39.2148 29.0792 39.4213 28.7118C39.6279 28.3444 39.776 27.9348 39.8624 27.4939C40.0749 26.4064 39.9048 25.5389 39.3566 24.9152ZM37.5368 27.2668C37.4201 27.8622 37.2007 28.2867 36.8844 28.5288C36.5627 28.7754 36.0484 28.9003 35.3557 28.9003H34.527L35.1259 25.8346H36.1972C36.9841 25.8346 37.3011 26.0018 37.4286 26.142C37.6047 26.3365 37.6424 26.7256 37.5368 27.2668Z" fill="white"/>
<path fill-rule="evenodd" clip-rule="evenodd" d="M21.5533 25.5815C22.2633 25.5815 22.7368 25.7119 22.9734 25.9726C23.2098 26.2333 23.2662 26.681 23.1425 27.3151C23.0131 27.9755 22.7642 28.4469 22.3954 28.7294C22.0265 29.0119 21.4651 29.153 20.7115 29.153H19.5743L20.2723 25.5815H21.5533ZM16.9987 32.7685H18.8679L19.3114 30.4998H20.9126C21.6191 30.4998 22.2003 30.4259 22.6566 30.2782C23.1128 30.1306 23.5276 29.8832 23.9008 29.5358C24.2141 29.2497 24.4675 28.9337 24.6616 28.5883C24.8555 28.243 24.9932 27.8621 25.0747 27.4454C25.2725 26.4338 25.1233 25.6459 24.6274 25.0816C24.1316 24.5171 23.3426 24.2349 22.2612 24.2349H18.6666L16.9987 32.7685ZM26.4476 21.9661H28.3022L27.8588 24.2349H29.5113C30.5505 24.2349 31.2679 24.4151 31.6625 24.7757C32.0571 25.1363 32.1753 25.7207 32.0175 26.5286L31.2416 30.4998H29.3575L30.0952 26.7239C30.179 26.2943 30.1483 26.0014 30.0025 25.8451C29.8566 25.689 29.5462 25.6107 29.0719 25.6107H27.5897L26.6343 30.4998H24.7796L26.4476 21.9661ZM36.1441 25.5815C36.8541 25.5815 37.3274 25.7119 37.5642 25.9726C37.8007 26.2333 37.8568 26.681 37.7331 27.3151C37.6041 27.9755 37.3552 28.4469 36.9862 28.7294C36.6175 29.0119 36.0559 29.153 35.3027 29.153H34.1655L34.8633 25.5815H36.1441ZM31.5891 32.7685H33.4585L33.9019 30.4998H35.503C36.2097 30.4998 36.791 30.4259 37.2472 30.2782C37.7034 30.1306 38.1182 29.8832 38.4914 29.5358C38.8047 29.2497 39.0581 28.9337 39.252 28.5883C39.4459 28.243 39.5838 27.8621 39.6655 27.4454C39.8632 26.4338 39.7139 25.6459 39.2182 25.0816C38.722 24.5171 37.9333 24.2349 36.8519 24.2349H33.2572L31.5891 32.7685Z" fill="black"/>
</svg>
