<svg width="57" height="56" viewBox="0 0 57 56" fill="none" xmlns="http://www.w3.org/2000/svg">
<path d="M27.257 12.7762C28.0284 12.3347 29.0332 12.3327 29.8039 12.7762C33.6815 14.9673 37.5603 17.1549 41.4372 19.3472C42.1664 19.758 42.6541 20.5695 42.6467 21.4097V34.5918C42.6521 35.4668 42.1162 36.2977 41.3469 36.6991C37.482 38.8781 33.6192 41.0597 29.7551 43.2386C28.9677 43.6888 27.9428 43.6541 27.18 43.167C26.0213 42.4954 24.8607 41.827 23.7019 41.156C23.4651 41.0148 23.1982 40.9024 23.031 40.6729C23.1788 40.4736 23.443 40.4488 23.6578 40.3618C24.1414 40.208 24.5856 39.9612 25.03 39.7216C25.1423 39.6447 25.2795 39.6742 25.3872 39.743C26.378 40.3111 27.36 40.8957 28.3542 41.4583C28.5662 41.5808 28.781 41.4182 28.9623 41.3172C32.7548 39.1737 36.5521 37.0383 40.344 34.8941C40.4845 34.8265 40.5621 34.6774 40.5507 34.5235C40.5534 30.175 40.5514 25.8258 40.5521 21.4773C40.5681 21.3027 40.4671 21.1421 40.3092 21.0707C36.4578 18.9017 32.6084 16.7294 28.7576 14.5598C28.6909 14.514 28.6119 14.4894 28.5309 14.4893C28.4499 14.4891 28.3708 14.5135 28.304 14.5592C24.4532 16.7294 20.6045 18.9037 16.7537 21.0725C16.5964 21.1441 16.4908 21.302 16.5095 21.4773C16.5102 25.8258 16.5095 30.175 16.5095 34.5242C16.5028 34.5993 16.5193 34.6746 16.5568 34.74C16.5942 34.8055 16.6508 34.8579 16.7189 34.8902C17.7465 35.4729 18.7754 36.0515 19.8037 36.6322C20.383 36.944 21.0942 37.1293 21.7325 36.8904C22.2957 36.6884 22.6905 36.1136 22.6797 35.5156C22.685 31.1925 22.6771 26.8688 22.6837 22.5463C22.6696 22.3544 22.8517 22.1959 23.0383 22.2139C23.532 22.2106 24.0264 22.2073 24.5202 22.2152C24.7262 22.2106 24.8681 22.4172 24.8426 22.6106C24.8406 26.9611 24.8479 31.3116 24.8393 35.6621C24.8406 36.8216 24.3643 38.0832 23.2918 38.6505C21.9706 39.3349 20.3375 39.1898 19.0323 38.5335C17.9023 37.9695 16.824 37.3039 15.7141 36.6997C14.9428 36.3005 14.4095 35.4662 14.4149 34.5919V21.4097C14.4068 20.5521 14.9139 19.7258 15.6659 19.3211C19.53 17.1403 23.3935 14.958 27.257 12.7762Z" fill="#8CC84B"/>
<path d="M30.6281 21.9075C32.3134 21.799 34.1176 21.8432 35.6342 22.6735C36.8084 23.3097 37.4593 24.645 37.4801 25.9495C37.4473 26.1254 37.2633 26.2225 37.0953 26.2104C36.6064 26.2097 36.1173 26.2171 35.6283 26.2071C35.4209 26.2151 35.3003 26.0238 35.2743 25.8404C35.1338 25.2163 34.7934 24.5981 34.2059 24.2971C33.3041 23.8455 32.2584 23.8682 31.2751 23.8777C30.5572 23.9158 29.7852 23.9779 29.177 24.4001C28.7101 24.7199 28.5683 25.3654 28.7349 25.8853C28.892 26.2586 29.3229 26.379 29.6755 26.4901C31.7065 27.0213 33.8588 26.9684 35.851 27.6675C36.6758 27.9525 37.4827 28.5065 37.765 29.3701C38.1343 30.5275 37.9725 31.911 37.149 32.8402C36.4812 33.6049 35.5085 34.021 34.5384 34.2471C33.2479 34.5348 31.9086 34.5422 30.5981 34.4144C29.3657 34.2739 28.0833 33.9501 27.1319 33.1105C26.3184 32.4041 25.9211 31.3035 25.9605 30.2412C25.9699 30.0618 26.1485 29.9367 26.3204 29.9515C26.8128 29.9475 27.3052 29.9461 27.7976 29.9521C27.9943 29.9381 28.1401 30.108 28.1502 30.2934C28.2411 30.8881 28.4645 31.5122 28.9831 31.8648C29.9839 32.5105 31.2396 32.4662 32.3855 32.4843C33.3349 32.4422 34.4006 32.4295 35.1753 31.802C35.5841 31.4441 35.7052 30.8453 35.5947 30.3302C35.4751 29.8953 35.0201 29.6926 34.6294 29.5601C32.6244 28.9259 30.4481 29.156 28.4625 28.4388C27.6565 28.1539 26.877 27.6153 26.5673 26.7871C26.1351 25.6151 26.3331 24.1653 27.2429 23.2675C28.13 22.3744 29.4106 22.0305 30.6281 21.9074V21.9075Z" fill="#8CC84B"/>
</svg>
