<svg width="58" height="56" viewBox="0 0 58 56" fill="none" xmlns="http://www.w3.org/2000/svg">
<path d="M42.8561 21.5954C42.8559 21.0737 42.7437 20.6127 42.5168 20.217C42.2939 19.828 41.9602 19.5019 41.5124 19.2441C37.8167 17.1249 34.1174 15.0123 30.4229 12.891C29.4269 12.3192 28.4612 12.34 27.4726 12.9201C26.0016 13.7828 18.6368 17.9788 16.4421 19.2429C15.5383 19.7632 15.0986 20.5594 15.0983 21.5944C15.0969 25.8561 15.0983 30.1177 15.0969 34.3795C15.0971 34.8897 15.2046 35.3418 15.4215 35.7315C15.6445 36.1323 15.9829 36.4674 16.441 36.7311C18.6357 37.9951 26.0015 42.1908 27.4721 43.0537C28.4612 43.6341 29.4269 43.6548 30.4233 43.0828C34.1179 40.9614 37.8174 38.8489 41.5136 36.7298C41.9717 36.4662 42.3101 36.1309 42.5331 35.7304C42.7497 35.3407 42.8573 34.8887 42.8576 34.3783C42.8576 34.3783 42.8576 25.8572 42.8561 21.5954Z" fill="#5C8DBC"/>
<path d="M29.0198 27.9456L15.4215 35.7316C15.6445 36.1325 15.983 36.4675 16.441 36.7312C18.6357 37.9953 26.0015 42.191 27.4722 43.0539C28.4612 43.6343 29.427 43.655 30.4233 43.0829C34.1179 40.9616 37.8174 38.849 41.5137 36.7299C41.9717 36.4663 42.3102 36.1311 42.5332 35.7305L29.0198 27.9456Z" fill="#1A4674"/>
<path d="M24.9921 30.2518C25.7833 31.6256 27.2709 32.5521 28.9772 32.5521C30.6941 32.5521 32.1901 31.6138 32.9774 30.2254L29.0197 27.9456L24.9921 30.2518Z" fill="#1A4674"/>
<path d="M42.8561 21.5954C42.8559 21.0737 42.7437 20.6127 42.5168 20.217L29.0197 27.9454L42.5331 35.7304C42.7496 35.3407 42.8573 34.8887 42.8575 34.3783C42.8575 34.3783 42.8575 25.8572 42.8561 21.5954Z" fill="#1B598E"/>
<path d="M42.113 28.502H41.0571V29.5523H40.0009V28.502H38.945V27.452H40.0009V26.4019H41.0571V27.452H42.113V28.502ZM38.2599 28.502H37.204V29.5523H36.148V28.502H35.092V27.452H36.148V26.4019H37.204V27.452H38.2599V28.502Z" fill="white"/>
<path d="M32.9774 30.2253C32.1901 31.6137 30.6941 32.552 28.9772 32.552C27.2708 32.552 25.7833 31.6255 24.992 30.2517C24.5945 29.5624 24.3858 28.7815 24.3866 27.9869C24.3866 25.4658 26.442 23.4219 28.9772 23.4219C30.6726 23.4219 32.1523 24.3369 32.9475 25.6966L36.9599 23.3989C35.3651 20.6612 32.3876 18.8193 28.9772 18.8193C23.8857 18.8193 19.7583 22.9239 19.7583 27.9869C19.7583 29.6479 20.2027 31.2056 20.9793 32.5492C22.5701 35.3014 25.5561 37.1546 28.9772 37.1546C32.4046 37.1546 35.3953 35.2939 36.9838 32.5336L32.9774 30.2253Z" fill="white"/>
</svg>
