<svg width="57" height="56" viewBox="0 0 57 56" fill="none" xmlns="http://www.w3.org/2000/svg">
<path d="M27.3084 12.4751H32.3924V35.7767C29.7883 36.2693 27.8713 36.4631 25.797 36.4631C19.5876 36.4566 16.3553 33.6825 16.3553 28.3547C16.3553 23.2214 19.7839 19.8899 25.0969 19.8899C25.9214 19.8899 26.5495 19.9548 27.3084 20.1492V12.4751ZM27.4866 24.3484C26.8912 24.1539 26.4005 24.0891 25.7723 24.0891C23.2009 24.0891 21.7157 25.6576 21.7157 28.4064C21.7157 31.0826 23.1356 32.5603 25.7397 32.5603C26.3023 32.5603 26.7603 32.5287 27.4866 32.4314V24.3484Z" fill="#2BA977"/>
<path d="M40.7062 20.5155V32.1823C40.7062 36.2001 40.4053 38.1322 39.5219 39.798C38.6975 41.3995 37.6114 42.4094 35.3671 43.5248L30.6495 41.3017C32.8938 40.2587 33.9799 39.3371 34.6735 37.9307C35.3997 36.4925 35.6287 34.8266 35.6287 30.4452V20.5156H40.7062V20.5155ZM35.1164 12.4751H40.2004V17.6409H35.1164V12.4751Z" fill="#2BA977"/>
</svg>
