<svg width="56" height="56" viewBox="0 0 56 56" fill="none" xmlns="http://www.w3.org/2000/svg">
<path d="M14.6558 27.9995C14.6558 33.2819 17.7254 37.8463 22.1766 40.0097L15.8111 22.5687C15.048 24.2775 14.6543 26.1281 14.6558 27.9995ZM37.0089 27.3262C37.0089 25.6769 36.4165 24.5348 35.9084 23.6458C35.232 22.5466 34.5982 21.6157 34.5982 20.5165C34.5982 19.2898 35.5283 18.1479 36.8388 18.1479C36.8979 18.1479 36.954 18.1553 37.0119 18.1586C34.6375 15.9835 31.4744 14.6555 28.0003 14.6555C23.3383 14.6555 19.2367 17.0474 16.8507 20.6704C17.1637 20.6798 17.459 20.6861 17.7094 20.6861C19.1052 20.6861 21.2658 20.5168 21.2658 20.5168C21.9852 20.4744 22.07 21.5309 21.3516 21.616C21.3516 21.616 20.6285 21.7011 19.8241 21.7432L24.6836 36.1976L27.6042 27.4391L25.5248 21.7429C24.8062 21.7008 24.1255 21.6157 24.1255 21.6157C23.4064 21.5736 23.4907 20.4741 24.2098 20.5165C24.2098 20.5165 26.4136 20.6859 27.7248 20.6859C29.1203 20.6859 31.2812 20.5165 31.2812 20.5165C32.0011 20.4741 32.0856 21.5307 31.3668 21.6157C31.3668 21.6157 30.6423 21.7008 29.8394 21.7429L34.6619 36.0879L35.9927 31.64C36.5699 29.7943 37.0089 28.4685 37.0089 27.3262Z" fill="#00749A"/>
<path d="M28.2344 29.1668L24.2306 40.8009C25.4547 41.1616 26.7242 41.3448 28.0003 41.3448C29.5543 41.3448 31.0446 41.0759 32.4317 40.5884C32.3945 40.5301 32.3627 40.4686 32.3368 40.4045L28.2344 29.1668ZM39.7096 21.5972C39.767 22.0222 39.7995 22.4788 39.7995 22.9694C39.7995 24.3235 39.5466 25.8458 38.7848 27.7491L34.7086 39.5344C38.6759 37.2209 41.3444 32.9228 41.3444 27.9995C41.3479 25.7617 40.7856 23.5593 39.7096 21.5972Z" fill="#00749A"/>
<path d="M28.0003 12.4443C19.4231 12.4443 12.4446 19.4223 12.4446 27.9995C12.4446 36.5777 19.4228 43.5557 28.0003 43.5557C36.5772 43.5557 43.5567 36.578 43.5567 27.9995C43.5565 19.4223 36.5772 12.4443 28.0003 12.4443ZM28.0003 42.8424C19.8164 42.8424 13.1578 36.1839 13.1578 27.9995C13.1578 19.8159 19.8162 13.1579 28.0003 13.1579C36.1839 13.1579 42.842 19.8159 42.842 27.9995C42.842 36.1839 36.1836 42.8424 28.0003 42.8424Z" fill="#00749A"/>
</svg>
