<svg width="57" height="56" viewBox="0 0 57 56" fill="none" xmlns="http://www.w3.org/2000/svg">
<path d="M20.316 23.5323H26.1839V23.9965H20.8539V27.4898H25.866V27.9539H20.8539V31.7892H26.245V32.2534H20.316V23.5323ZM26.7095 23.5323H27.333L30.0958 27.3676L32.9197 23.5323L36.7606 18.6606L30.4503 27.7707L33.702 32.2534H33.0541L30.0958 28.1738L27.1252 32.2534H26.4895L29.7657 27.7707L26.7095 23.5323ZM33.9343 23.9965V23.5323H40.6212V23.9965H37.5406V32.2534H37.0027V23.9965H33.9343Z" fill="black"/>
<path d="M12.9752 23.5322H13.6475L22.9189 37.3394L19.0875 32.2532L13.5375 24.1918L13.513 32.2532H12.9752V23.5322Z" fill="black"/>
<path d="M40.5671 31.6492C40.6783 31.6492 40.7594 31.5644 40.7594 31.4549C40.7594 31.3454 40.6783 31.2607 40.5671 31.2607C40.4572 31.2607 40.3748 31.3454 40.3748 31.4549C40.3748 31.5644 40.4572 31.6492 40.5671 31.6492ZM41.0956 31.1381C41.0956 31.4615 41.3298 31.6727 41.6712 31.6727C42.0349 31.6727 42.2547 31.4549 42.2547 31.0769V29.7458H41.9617V31.0756C41.9617 31.2855 41.8557 31.3976 41.6686 31.3976C41.5012 31.3976 41.3873 31.2933 41.3834 31.1381H41.0956ZM42.638 31.1212C42.659 31.4575 42.9403 31.6727 43.3589 31.6727C43.8063 31.6727 44.0863 31.4471 44.0863 31.0873C44.0863 30.8044 43.9267 30.648 43.5394 30.558L43.3314 30.5072C43.0855 30.4498 42.986 30.3729 42.986 30.2386C42.986 30.0691 43.1404 29.9583 43.372 29.9583C43.5918 29.9583 43.7435 30.0665 43.771 30.2399H44.0562C44.0392 29.9231 43.7592 29.7002 43.3759 29.7002C42.9638 29.7002 42.6891 29.9231 42.6891 30.2582C42.6891 30.5345 42.8448 30.6988 43.1862 30.7783L43.4295 30.837C43.6794 30.8957 43.7893 30.9817 43.7893 31.1251C43.7893 31.292 43.6166 31.4132 43.3811 31.4132C43.1286 31.4132 42.9533 31.2998 42.9285 31.1212H42.638Z" fill="black"/>
</svg>
