<svg width="58" height="56" viewBox="0 0 58 56" fill="none" xmlns="http://www.w3.org/2000/svg">
<path d="M42.1742 36.4764C40.472 36.4336 39.1528 36.6054 38.0464 37.0779C37.7272 37.2067 37.2164 37.2068 37.1739 37.6149C37.3441 37.7868 37.3654 38.066 37.5144 38.3022C37.77 38.7317 38.2165 39.3117 38.6208 39.6125C39.0676 39.9561 39.5146 40.2997 39.9825 40.6004C40.8124 41.1159 41.7487 41.4165 42.5573 41.9321C43.0255 42.2326 43.4933 42.6195 43.9615 42.9416C44.1956 43.1132 44.3444 43.3927 44.6425 43.5V43.4356C44.4934 43.2422 44.4508 42.9631 44.302 42.7482C44.0894 42.5334 43.8764 42.3401 43.6636 42.1253C43.0466 41.2878 42.2806 40.5574 41.4508 39.9561C40.77 39.4835 39.2804 38.8392 39.0038 38.0444C39.0038 38.0444 38.9824 38.0231 38.9613 38.0016C39.4293 37.9586 39.9825 37.7868 40.4295 37.6579C41.1529 37.4644 41.8124 37.5075 42.5573 37.3142C42.8976 37.2283 43.2381 37.1209 43.5785 37.0134V36.8202C43.1957 36.4336 42.919 35.9182 42.5147 35.553C41.4295 34.6077 40.2378 33.6843 39.0038 32.9111C38.3442 32.4815 37.493 32.2022 36.7908 31.8372C36.5357 31.7081 36.11 31.6438 35.9611 31.429C35.578 30.9566 35.3652 30.3337 35.0887 29.7752C34.4718 28.5938 33.8758 27.2837 33.3438 26.038C32.961 25.2003 32.7269 24.3625 32.2588 23.5895C30.0672 19.9381 27.684 17.7258 24.0243 15.5563C23.237 15.1054 22.3008 14.912 21.3007 14.6759C20.769 14.6543 20.2368 14.6114 19.705 14.5898C19.3645 14.4394 19.024 14.0314 18.7261 13.8381C17.5135 13.0648 14.3854 11.3896 13.4918 13.6019C12.9172 14.9979 14.343 16.3725 14.8322 17.0815C15.1942 17.5754 15.6621 18.1338 15.9175 18.6923C16.0664 19.0572 16.1089 19.4441 16.2578 19.8307C16.5984 20.7755 16.9174 21.8281 17.3644 22.7089C17.5985 23.1598 17.8537 23.6323 18.1516 24.0404C18.3219 24.2766 18.6197 24.3841 18.6836 24.7707C18.3858 25.2003 18.3644 25.8447 18.1941 26.3816C17.4281 28.8087 17.7262 31.8157 18.8112 33.5984C19.1516 34.1351 19.9602 35.3168 21.0454 34.8656C22.003 34.4791 21.7902 33.2548 22.0666 32.1809C22.1307 31.9228 22.0881 31.7512 22.2157 31.5794V31.6225C22.5136 32.2237 22.8114 32.8038 23.088 33.4051C23.7477 34.4575 24.8966 35.553 25.8541 36.2833C26.3649 36.6698 26.7691 37.3357 27.4075 37.572V37.5074H27.3648C27.2372 37.3141 27.0456 37.2283 26.8755 37.0778C26.4926 36.6914 26.0669 36.2188 25.7691 35.7892C24.8755 34.5862 24.0881 33.2547 23.3859 31.88C23.0456 31.2143 22.7475 30.484 22.471 29.8182C22.3432 29.5602 22.3432 29.1738 22.1305 29.045C21.8113 29.5175 21.3433 29.9256 21.1092 30.5055C20.7051 31.429 20.6625 32.5674 20.5135 33.7486C20.4284 33.7703 20.4708 33.7486 20.4282 33.7918C19.7475 33.6197 19.5134 32.9111 19.258 32.3096C18.6196 30.7847 18.5132 28.3361 19.0666 26.5749C19.2155 26.1238 19.8539 24.7063 19.5986 24.2767C19.4709 23.8686 19.0452 23.6323 18.8112 23.3102C18.5347 22.9021 18.2366 22.3868 18.0452 21.9356C17.5345 20.7327 17.2792 19.401 16.726 18.1982C16.4706 17.6397 16.024 17.06 15.6621 16.5445C15.2579 15.9646 14.811 15.5563 14.4918 14.8691C14.3855 14.6329 14.2365 14.2462 14.4067 13.9885C14.4493 13.8166 14.5343 13.7523 14.7046 13.7093C14.9813 13.4729 15.7686 13.7737 16.045 13.9025C16.8324 14.2245 17.492 14.5255 18.1516 14.9765C18.4494 15.1913 18.7686 15.5994 19.1516 15.7068H19.5984C20.2794 15.8571 21.0452 15.7498 21.6837 15.943C22.8115 16.308 23.8327 16.8451 24.7477 17.425C27.5352 19.2077 29.833 21.7422 31.3864 24.7707C31.6418 25.2645 31.7481 25.7158 31.9821 26.2311C32.4291 27.2837 32.9823 28.3576 33.4289 29.3886C33.8758 30.3979 34.3013 31.429 34.9397 32.2668C35.2589 32.7176 36.5355 32.954 37.11 33.1903C37.5356 33.3835 38.1953 33.5555 38.5782 33.7917C39.3016 34.2425 40.025 34.7583 40.706 35.2521C41.0465 35.5099 42.1102 36.0469 42.1742 36.4764Z" fill="#00546B"/>
<path d="M20.4707 17.8115C20.109 17.8115 19.8538 17.8547 19.5984 17.9191V17.962H19.641C19.8114 18.3057 20.109 18.542 20.3217 18.8426C20.4921 19.1862 20.6409 19.53 20.8113 19.8737C20.8325 19.8521 20.8537 19.8307 20.8537 19.8307C21.1518 19.6158 21.3006 19.2722 21.3006 18.7567C21.1729 18.6064 21.1517 18.4561 21.0453 18.3057C20.9177 18.0908 20.6409 17.9835 20.4707 17.8115Z" fill="#00546B"/>
</svg>
