<svg width="57" height="56" viewBox="0 0 57 56" fill="none" xmlns="http://www.w3.org/2000/svg">
<path fill-rule="evenodd" clip-rule="evenodd" d="M19.3555 15.6084C17.5704 15.6084 16.2496 17.1621 16.3087 18.8471C16.3655 20.4659 16.2917 22.5625 15.761 24.2723C15.2284 25.9869 14.3282 27.0734 12.8575 27.2128V28.7874C14.3282 28.9271 15.2284 30.0131 15.7609 31.7279C16.2917 33.4377 16.3654 35.5343 16.3087 37.1531C16.2495 38.8378 17.5704 40.3918 19.3558 40.3918H37.6469C39.4319 40.3918 40.7526 38.8381 40.6934 37.1531C40.6367 35.5343 40.7104 33.4377 41.2412 31.7279C41.7738 30.0131 42.6718 28.9267 44.1425 28.7874V27.2128C42.6718 27.0731 41.7738 25.9871 41.2412 24.2723C40.7103 22.5628 40.6367 20.4659 40.6934 18.8471C40.7526 17.1624 39.4319 15.6084 37.6469 15.6084H19.3553H19.3555ZM34.0677 30.8642C34.0677 33.1844 32.3274 34.5915 29.4393 34.5915H24.5231C24.3825 34.5915 24.2476 34.5359 24.1481 34.437C24.0487 34.3381 23.9928 34.204 23.9928 34.0642V21.9361C23.9928 21.7963 24.0487 21.6621 24.1481 21.5632C24.2476 21.4644 24.3825 21.4088 24.5231 21.4088H29.4114C31.8195 21.4088 33.3999 22.706 33.3999 24.6976C33.3999 26.0955 32.3367 27.3469 30.9823 27.5661V27.639C32.8261 27.8402 34.0677 29.1101 34.0677 30.8642ZM28.9033 23.0804H26.1001V27.0179H28.4611C30.2862 27.0179 31.2926 26.287 31.2926 24.9806C31.2924 23.7564 30.4272 23.0804 28.9033 23.0804ZM26.1001 28.5802V32.9194H29.0064C30.9067 32.9194 31.9133 32.1611 31.9133 30.7361C31.9133 29.311 30.8785 28.5799 28.8842 28.5799H26.1001V28.5802Z" fill="#7952B3"/>
</svg>
