<svg width="57" height="56" viewBox="0 0 57 56" fill="none" xmlns="http://www.w3.org/2000/svg">
<path d="M42.2161 12.4443L39.717 40.4411L28.4832 43.5554L17.2804 40.4455L14.7839 12.4443H42.2161Z" fill="#264DE4"/>
<path d="M37.5774 38.6584L39.7131 14.7339H28.5V41.175L37.5774 38.6584Z" fill="#2965F1"/>
<path d="M20.5071 25.1191L20.8149 28.5533H28.5V25.1191H20.5071Z" fill="#EBEBEB"/>
<path d="M28.5 18.168H28.4881H19.8886L20.2008 21.6022H28.5V18.168Z" fill="#EBEBEB"/>
<path d="M28.5 37.611V34.038L28.4849 34.042L24.6602 33.0092L24.4157 30.2703H22.5572H20.9683L21.4494 35.6625L28.4842 37.6154L28.5 37.611Z" fill="#EBEBEB"/>
<path d="M32.717 28.5531L32.3184 33.007L28.4881 34.0408V37.6137L35.5285 35.6625L35.5801 35.0823L36.3871 26.0411L36.4709 25.1189L37.0909 18.168H28.4881V21.6022H33.3273L33.0148 25.1189H28.4881V28.5531H32.717Z" fill="white"/>
</svg>
