<svg width="56" height="57" viewBox="0 0 56 57" fill="none" xmlns="http://www.w3.org/2000/svg">
<path d="M22.8148 44.0554C25.677 44.0554 28 41.7325 28 38.8702V33.6851H22.8148C19.9526 33.6851 17.6296 36.008 17.6296 38.8702C17.6296 41.7325 19.9526 44.0554 22.8148 44.0554Z" fill="#0ACF83"/>
<path d="M17.6296 28.4996C17.6296 25.6374 19.9526 23.3145 22.8148 23.3145H28V33.6848H22.8148C19.9526 33.6848 17.6296 31.3618 17.6296 28.4996Z" fill="#A259FF"/>
<path d="M17.6296 18.1295C17.6296 15.2673 19.9526 12.9443 22.8148 12.9443H28V23.3147H22.8148C19.9526 23.3147 17.6296 20.9917 17.6296 18.1295Z" fill="#F24E1E"/>
<path d="M28 12.9443H33.1852C36.0474 12.9443 38.3704 15.2673 38.3704 18.1295C38.3704 20.9917 36.0474 23.3147 33.1852 23.3147H28V12.9443Z" fill="#FF7262"/>
<path d="M38.3704 28.4996C38.3704 31.3618 36.0474 33.6848 33.1852 33.6848C30.323 33.6848 28 31.3618 28 28.4996C28 25.6374 30.323 23.3145 33.1852 23.3145C36.0474 23.3145 38.3704 25.6374 38.3704 28.4996Z" fill="#1ABCFE"/>
</svg>
