<svg width="55" height="51" viewBox="0 0 55 51" fill="none" xmlns="http://www.w3.org/2000/svg">
<g clip-path="url(#clip0_134_6115)">
<path d="M11.9758 2.14539L27.4446 0.5L42.9133 2.14539L54.8891 18.3204L27.4446 50.4751L0 18.3204L11.9758 2.14539Z" fill="#FDB300"/>
<path d="M11.1164 18.3203L27.4446 50.4751L0 18.3203H11.1164Z" fill="#EA6C00"/>
<path d="M43.7726 18.3203L27.4445 50.4751L54.889 18.3203H43.7726Z" fill="#EA6C00"/>
<path d="M11.1165 18.3203H43.7728L27.4446 50.4751L11.1165 18.3203Z" fill="#FDAD00"/>
<path d="M27.4446 0.5L11.9758 2.14537L11.1165 18.3204L27.4446 0.5Z" fill="#FDD231"/>
<path d="M27.4445 0.5L42.9134 2.14537L43.7727 18.3204L27.4445 0.5Z" fill="#FDD231"/>
<path d="M54.8892 18.3205L42.9133 2.14551L43.7727 18.3205H54.8892Z" fill="#FDAD00"/>
<path d="M0 18.3205L11.9758 2.14551L11.1164 18.3205H0Z" fill="#FDAD00"/>
<path d="M27.4446 0.5L11.1165 18.3204H43.7728L27.4446 0.5Z" fill="#FEEEB7"/>
</g>
<defs>
<clipPath id="clip0_134_6115">
<rect width="55" height="50" fill="white" transform="translate(0 0.5)"/>
</clipPath>
</defs>
</svg>
