<svg width="57" height="56" viewBox="0 0 57 56" fill="none" xmlns="http://www.w3.org/2000/svg">
<path fill-rule="evenodd" clip-rule="evenodd" d="M31.3724 16.0065L37.761 19.6952C37.9454 19.5 38.1571 19.3325 38.3894 19.1979C39.7143 18.4362 41.4043 18.8884 42.1739 20.2134C42.9356 21.5384 42.4834 23.2283 41.1583 23.9979C40.9278 24.1307 40.6793 24.2297 40.4205 24.2917V31.6718C40.6764 31.7339 40.9222 31.8322 41.1505 31.9636C42.4834 32.7332 42.9356 34.4232 42.166 35.7482C41.4043 37.0731 39.7064 37.5254 38.3814 36.7638C38.1247 36.6165 37.8935 36.4288 37.6966 36.2078L31.3469 39.8738C31.4399 40.1554 31.4871 40.45 31.4868 40.7465C31.4868 42.2699 30.2492 43.5156 28.7179 43.5156C27.1865 43.5156 25.9489 42.2778 25.9489 40.7465C25.9489 40.4744 25.988 40.2114 26.0609 39.9631L19.6741 36.2755C19.4917 36.4668 19.283 36.6312 19.0543 36.7638C17.7214 37.5254 16.0314 37.0731 15.2697 35.7482C14.5081 34.4232 14.9604 32.7332 16.2852 31.9636C16.5135 31.8322 16.7593 31.7339 17.0152 31.6717V24.2917C16.7564 24.2297 16.508 24.1307 16.2774 23.9979C14.9524 23.2363 14.5001 21.5384 15.2618 20.2134C16.0235 18.8884 17.7213 18.4362 19.0463 19.1979C19.2774 19.3318 19.488 19.4982 19.6717 19.692L26.0621 16.0024C25.9868 15.7467 25.9487 15.4815 25.9489 15.215C25.9489 13.6839 27.1865 12.446 28.7179 12.446C30.2492 12.446 31.4868 13.6838 31.4868 15.215C31.4868 15.4902 31.4468 15.7558 31.3724 16.0065ZM30.7068 17.143L37.1106 20.8403C37.0087 21.1968 36.9794 21.5701 37.0246 21.9381C37.0699 22.3061 37.1886 22.6612 37.3739 22.9824C37.7637 23.6605 38.3987 24.11 39.1035 24.2852V31.6745C39.0675 31.6832 39.0318 31.6928 38.9962 31.703L30.6324 17.217C30.6577 17.1928 30.6825 17.1682 30.7068 17.1431V17.143ZM26.805 17.2186L18.4413 31.7044C18.4051 31.6939 18.3688 31.6842 18.3322 31.6752V24.2852C19.037 24.11 19.672 23.6605 20.0618 22.9824C20.2475 22.6606 20.3663 22.3047 20.4114 21.936C20.4564 21.5673 20.4267 21.1932 20.324 20.8362L26.726 17.14C26.7518 17.1667 26.7781 17.1929 26.805 17.2185V17.2186ZM29.4916 17.8748L37.8533 32.3573C37.6618 32.5401 37.4976 32.7495 37.3659 32.9792C37.2345 33.2074 37.1362 33.4532 37.074 33.7091H20.3619C20.2997 33.4532 20.2013 33.2074 20.0698 32.9792C19.9376 32.7511 19.7738 32.5429 19.5831 32.3609L27.9465 17.8755C28.1973 17.9477 28.4569 17.9842 28.7179 17.9839C28.9865 17.9839 29.246 17.9459 29.4916 17.8748ZM30.7656 38.8811L37.1278 35.2078C37.1087 35.1478 37.0917 35.0873 37.0767 35.0261H20.3583C20.3495 35.0621 20.3399 35.0977 20.3296 35.1333L26.7229 38.8247C26.9811 38.5562 27.291 38.3428 27.6338 38.1972C27.9766 38.0516 28.3454 37.9769 28.7179 37.9776C29.1033 37.9769 29.4847 38.057 29.8374 38.2126C30.19 38.3682 30.5062 38.596 30.7656 38.8811Z" fill="#E535AB"/>
</svg>
