<?xml version="1.0" encoding="UTF-8"?>
<svg version="1.1" xmlns="http://www.w3.org/2000/svg" width="90" height="90">
<path d="M0 0 C2.5 2.1875 2.5 2.1875 4 5 C4 7.5625 4 7.5625 3 10 C2.32976807 10.48782959 1.65953613 10.97565918 0.96899414 11.47827148 C-2.19265877 15.52746094 -1.54395388 19.79354575 -1.50390625 24.78515625 C-1.51332748 25.8377916 -1.52274872 26.89042694 -1.53245544 27.97496033 C-1.56114489 31.33767159 -1.56418153 34.69967608 -1.5625 38.0625 C-1.56610134 41.42879115 -1.57555827 44.79456822 -1.60325623 48.16075134 C-1.62011369 50.25521808 -1.62286674 52.34985465 -1.61024475 54.4443512 C-1.61712814 55.39220993 -1.62401154 56.34006866 -1.63110352 57.31665039 C-1.63014175 58.15063858 -1.62917999 58.98462677 -1.62818909 59.84388733 C-2.08894405 62.51578206 -2.840143 63.40039142 -5 65 C-7.91088867 65.34057617 -7.91088867 65.34057617 -11.41796875 65.29296875 C-12.67158203 65.28330078 -13.92519531 65.27363281 -15.21679688 65.26367188 C-17.18229492 65.2259668 -17.18229492 65.2259668 -19.1875 65.1875 C-20.52277163 65.17244967 -21.85805937 65.15876187 -23.19335938 65.14648438 C-26.46264576 65.11107694 -29.73112093 65.0616889 -33 65 C-32.67 65.33 -32.34 65.66 -32 66 C-31.7525 66.969375 -31.505 67.93875 -31.25 68.9375 C-30.3017178 72.20145792 -30.3017178 72.20145792 -27.375 73.375 C-26.199375 73.684375 -26.199375 73.684375 -25 74 C-25 75.65 -25 77.3 -25 79 C-35.56 78.67 -46.12 78.34 -57 78 C-57.33 76.68 -57.66 75.36 -58 74 C-56.5459375 73.4121875 -56.5459375 73.4121875 -55.0625 72.8125 C-51.76398352 71.34391537 -51.76398352 71.34391537 -51.30859375 68.38671875 C-51.20675781 67.59910156 -51.10492188 66.81148438 -51 66 C-52.19544434 65.98598145 -52.19544434 65.98598145 -53.41503906 65.97167969 C-57.02732175 65.91798502 -60.63830821 65.83433392 -64.25 65.75 C-65.50425781 65.73582031 -66.75851563 65.72164063 -68.05078125 65.70703125 C-69.25605469 65.67480469 -70.46132812 65.64257812 -71.703125 65.609375 C-72.81333008 65.58842773 -73.92353516 65.56748047 -75.06738281 65.54589844 C-78.69925622 64.86983542 -79.70756296 63.84901362 -82 61 C-82.46324158 58.56504822 -82.46324158 58.56504822 -82.40991211 55.82006836 C-82.39927231 54.78897446 -82.38863251 53.75788055 -82.37767029 52.69554138 C-82.34456253 51.58816116 -82.31145477 50.48078094 -82.27734375 49.33984375 C-82.25660294 48.19842422 -82.23586212 47.0570047 -82.2144928 45.8809967 C-82.16591515 43.46919348 -82.10726551 41.05757517 -82.03930664 38.64624023 C-81.93780099 34.94846489 -81.87374004 31.25140167 -81.81445312 27.55273438 C-81.76264611 25.21088712 -81.70868271 22.86908636 -81.65234375 20.52734375 C-81.63340561 19.4179393 -81.61446747 18.30853485 -81.59495544 17.16551208 C-81.54589806 15.62359947 -81.54589806 15.62359947 -81.49584961 14.05053711 C-81.47268173 13.14548935 -81.44951385 12.24044159 -81.42564392 11.30796814 C-81 9 -81 9 -79.86895752 7.19989014 C-77.08786173 5.41439776 -74.88391098 5.68243234 -71.60083008 5.7512207 C-70.95665634 5.76053619 -70.3124826 5.76985168 -69.64878845 5.77944946 C-67.5218319 5.81379604 -65.39601627 5.86969028 -63.26953125 5.92578125 C-61.79410727 5.95381679 -60.31865716 5.98050694 -58.84318542 6.00590515 C-54.96139617 6.07634346 -51.08023131 6.16506347 -47.19891357 6.25756836 C-43.23764158 6.34875087 -39.27605195 6.42267716 -35.31445312 6.49804688 C-27.54255426 6.6484568 -19.77123414 6.81817741 -12 7 C-11.69449219 6.37609375 -11.38898438 5.7521875 -11.07421875 5.109375 C-8.41623663 -0.10993534 -5.88563148 -0.82605354 0 0 Z M-7.88916016 6.66210938 C-9.11093644 7.88420363 -10.3271918 9.11183237 -11.5390625 10.34375 C-12.17991791 10.9874353 -12.82077332 11.63112061 -13.48104858 12.29431152 C-15.53375567 14.35824447 -17.57941371 16.42901163 -19.625 18.5 C-21.01256322 19.8975899 -22.40057828 21.29473135 -23.7890625 22.69140625 C-27.19797984 26.12241587 -30.60058948 29.55957191 -34 33 C-32.68 34.32 -31.36 35.64 -30 37 C-20.1 27.1 -10.2 17.2 0 7 C-0.99 6.01 -1.98 5.02 -3 4 C-5.40963268 3.77412697 -5.40963268 3.77412697 -7.88916016 6.66210938 Z M-75 10 C-77.12770316 13.19155473 -77.24923573 13.98148132 -77.24291992 17.63916016 C-77.24599655 18.57668121 -77.24907318 19.51420227 -77.25224304 20.48013306 C-77.24505753 21.48957977 -77.23787201 22.49902649 -77.23046875 23.5390625 C-77.23001053 24.5756601 -77.22955231 25.61225769 -77.2290802 26.68026733 C-77.22605896 28.87084091 -77.2181765 31.06141237 -77.20581055 33.25195312 C-77.18753493 36.6185663 -77.18530099 39.98490486 -77.18554688 43.3515625 C-77.18063248 45.4765649 -77.1748045 47.60156542 -77.16796875 49.7265625 C-77.16685593 50.74005768 -77.1657431 51.75355286 -77.16459656 52.79776001 C-77.15821671 53.72897675 -77.15183685 54.66019348 -77.14526367 55.61962891 C-77.14145187 56.44330963 -77.13764008 57.26699036 -77.13371277 58.1156311 C-77.20595017 60.0124777 -77.20595017 60.0124777 -76 61 C-73.89419586 61.1100096 -71.78466694 61.14913223 -69.67602539 61.16113281 C-69.01584915 61.16609772 -68.35567291 61.17106262 -67.67549133 61.17617798 C-65.4828692 61.19083106 -63.29031938 61.19760645 -61.09765625 61.203125 C-59.57929989 61.20887348 -58.06094357 61.21463124 -56.54258728 61.22039795 C-53.35561788 61.23091663 -50.16867378 61.23675373 -46.98168945 61.24023438 C-42.89123007 61.2457237 -38.80110281 61.26975707 -34.71074772 61.29820633 C-31.57355258 61.31679817 -28.43643802 61.32203643 -25.29919243 61.32357025 C-23.790849 61.32660471 -22.28250724 61.33465982 -20.77421761 61.34775543 C-18.66700846 61.36474622 -16.56061834 61.36295357 -14.45336914 61.35644531 C-12.65253624 61.36191376 -12.65253624 61.36191376 -10.81532288 61.36749268 C-9.88626633 61.24622009 -8.95720978 61.12494751 -8 61 C-5.44218478 57.16327717 -5.74693544 54.05464013 -5.8046875 49.61328125 C-5.80893234 48.38776802 -5.80893234 48.38776802 -5.81326294 47.13749695 C-5.82445459 44.52901541 -5.8495571 41.9208777 -5.875 39.3125 C-5.88503112 37.54362475 -5.89415674 35.77474412 -5.90234375 34.00585938 C-5.92439058 29.67044051 -5.9589133 25.33527855 -6 21 C-9.08676889 20.67508912 -9.08676889 20.67508912 -11.12890625 22.82006836 C-12.33353516 24.06735718 -12.33353516 24.06735718 -13.5625 25.33984375 C-14.44164062 26.23767578 -15.32078125 27.13550781 -16.2265625 28.06054688 C-17.14179687 29.00994141 -18.05703125 29.95933594 -19 30.9375 C-20.80790296 32.805242 -22.62020113 34.66874264 -24.4375 36.52734375 C-25.24058594 37.35999756 -26.04367188 38.19265137 -26.87109375 39.05053711 C-30.63599175 42.49809566 -34.10467174 42.09236468 -39 42 C-39.35113809 37.11163269 -38.99473206 33.37844686 -36.07470703 29.33203125 C-33.49287305 26.60820404 -30.82510668 24.04015315 -28.0625 21.5 C-27.12986328 20.60796875 -26.19722656 19.7159375 -25.23632812 18.796875 C-22.84182213 16.51144628 -20.42355279 14.25446772 -18 12 C-17.34 11.34 -16.68 10.68 -16 10 C-23.6580332 9.93056283 -31.31603387 9.87722087 -38.97430992 9.84456348 C-42.53018671 9.82889136 -46.08584852 9.80762556 -49.64160156 9.77368164 C-53.72723482 9.73492241 -57.81264141 9.72030367 -61.8984375 9.70703125 C-63.81878311 9.68380547 -63.81878311 9.68380547 -65.77792358 9.66011047 C-66.95899689 9.65988388 -68.14007019 9.65965729 -69.35693359 9.65942383 C-70.40062103 9.65276199 -71.44430847 9.64610016 -72.5196228 9.63923645 C-73.33814728 9.75828842 -74.15667175 9.87734039 -75 10 Z M-46 64 C-46.66 67.3 -47.32 70.6 -48 74 C-43.71 74 -39.42 74 -35 74 C-34.7763932 71.0745356 -34.7763932 71.0745356 -36 69 C-36.66 69 -37.32 69 -38 69 C-37.67 67.35 -37.34 65.7 -37 64 C-39.97 64 -42.94 64 -46 64 Z " fill="#D2D2D2" transform="translate(84,6)"/>
<path d="M0 0 C0.33 0.66 0.66 1.32 1 2 C1.99 2.33 2.98 2.66 4 3 C3.67 3.99 3.34 4.98 3 6 C2.90829472 7.54426758 2.87209682 9.09217277 2.87060547 10.63916016 C2.86745331 11.57668121 2.86430115 12.51420227 2.86105347 13.48013306 C2.8630777 14.48957977 2.86510193 15.49902649 2.8671875 16.5390625 C2.86623077 17.5756601 2.86527405 18.61225769 2.86428833 19.68026733 C2.86360778 21.87082988 2.86545335 24.06139445 2.86962891 26.25195312 C2.87498971 29.61853521 2.86967411 32.98498452 2.86328125 36.3515625 C2.86394184 38.4765628 2.86522261 40.60156301 2.8671875 42.7265625 C2.86516327 43.74005768 2.86313904 44.75355286 2.86105347 45.79776001 C2.86420563 46.72897675 2.86735779 47.66019348 2.87060547 48.61962891 C2.87140106 49.44330963 2.87219666 50.26699036 2.87301636 51.1156311 C2.79326887 53.01259023 2.79326887 53.01259023 4 54 C6.80976518 54.16017166 9.59773596 54.25950534 12.41015625 54.31640625 C13.67320839 54.3475779 13.67320839 54.3475779 14.96177673 54.37937927 C17.66193179 54.44496812 20.36218717 54.50380276 23.0625 54.5625 C24.88868241 54.60567637 26.71485454 54.64929036 28.54101562 54.69335938 C33.02723992 54.80065894 37.5135655 54.90189966 42 55 C41.67 55.99 41.34 56.98 41 58 C38.69 58 36.38 58 34 58 C33.855625 58.94875 33.71125 59.8975 33.5625 60.875 C33 64 33 64 32 66 C36.62 66 41.24 66 46 66 C46 66.66 46 67.32 46 68 C37.585 68.495 37.585 68.495 29 69 C36.92 69.33 44.84 69.66 53 70 C53.495 68.515 53.495 68.515 54 67 C54 68.65 54 70.3 54 72 C43.44 71.67 32.88 71.34 22 71 C21.67 69.68 21.34 68.36 21 67 C22.4540625 66.4121875 22.4540625 66.4121875 23.9375 65.8125 C27.23601648 64.34391537 27.23601648 64.34391537 27.69140625 61.38671875 C27.79324219 60.59910156 27.89507812 59.81148437 28 59 C27.20303711 58.9906543 26.40607422 58.98130859 25.58496094 58.97167969 C21.97267825 58.91798502 18.36169179 58.83433392 14.75 58.75 C13.49574219 58.73582031 12.24148437 58.72164062 10.94921875 58.70703125 C9.74394531 58.67480469 8.53867188 58.64257812 7.296875 58.609375 C6.18666992 58.58842773 5.07646484 58.56748047 3.93261719 58.54589844 C0.30046168 57.86978291 -0.70862103 56.85046678 -3 54 C-3.45651245 51.55831909 -3.45651245 51.55831909 -3.39404297 48.80419922 C-3.38017548 47.76987762 -3.36630798 46.73555603 -3.35202026 45.66989136 C-3.31577545 44.55937408 -3.27953064 43.44885681 -3.2421875 42.3046875 C-3.21907501 41.1608963 -3.19596252 40.0171051 -3.17214966 38.83865356 C-3.11919523 36.42264145 -3.05635538 34.00682873 -2.984375 31.59130859 C-2.87522533 27.88265617 -2.79836331 24.17438834 -2.7265625 20.46484375 C-2.67116964 18.11974605 -2.61394079 15.77469084 -2.5546875 13.4296875 C-2.53058807 12.31512177 -2.50648865 11.20055603 -2.48165894 10.05221558 C-2.44887848 9.0241983 -2.41609802 7.99618103 -2.38232422 6.93701172 C-2.35693573 6.02974335 -2.33154724 5.12247498 -2.3053894 4.18771362 C-2 2 -2 2 0 0 Z " fill="#CECECE" transform="translate(5,13)"/>
<path d="M0 0 C2.5 2.1875 2.5 2.1875 4 5 C3.75 7.8125 3.75 7.8125 3 10 C2.505 9.01 2.505 9.01 2 8 C0.68 8.33 -0.64 8.66 -2 9 C-1.67 8.01 -1.34 7.02 -1 6 C-2.8414827 5.27122435 -2.8414827 5.27122435 -5 5 C-7.38146234 6.93450561 -9.40536982 8.82507058 -11.515625 11.02734375 C-12.13145447 11.65024796 -12.74728394 12.27315216 -13.3817749 12.91493225 C-15.34986181 14.91105214 -17.29988385 16.92383481 -19.25 18.9375 C-20.57957667 20.29214776 -21.91029231 21.64567863 -23.2421875 22.99804688 C-26.50815884 26.31920595 -29.75802926 29.65541527 -33 33 C-32.67 33.99 -32.34 34.98 -32 36 C-33.32 37.32 -34.64 38.64 -36 40 C-36.33 39.01 -36.66 38.02 -37 37 C-37.66 37.66 -38.32 38.32 -39 39 C-39.37308196 34.88055341 -39.50522137 32.71349081 -37.07226562 29.27758789 C-35.75258789 28.01289673 -35.75258789 28.01289673 -34.40625 26.72265625 C-33.94013306 26.26644394 -33.47401611 25.81023163 -32.99377441 25.3401947 C-31.51154661 23.89693291 -30.0068364 22.48000493 -28.5 21.0625 C-27.48669044 20.08432757 -26.47495242 19.10452435 -25.46484375 18.12304688 C-22.9915541 15.73220022 -20.50344518 13.35918637 -18 11 C-18.72218719 10.99191315 -19.44437439 10.98382629 -20.18844604 10.97549438 C-26.9868301 10.89762708 -33.78503514 10.81036046 -40.58315849 10.71247292 C-44.07834766 10.66247827 -47.57350614 10.61614887 -51.06884766 10.578125 C-55.08515707 10.53427456 -59.10109487 10.47461041 -63.1171875 10.4140625 C-65.00472244 10.39673569 -65.00472244 10.39673569 -66.9303894 10.37905884 C-68.09144196 10.35918915 -69.25249451 10.33931946 -70.44873047 10.31884766 C-71.47465302 10.30552399 -72.50057556 10.29220032 -73.55758667 10.2784729 C-76 10 -76 10 -78 8 C-78 7.34 -78 6.68 -78 6 C-45.33 6.495 -45.33 6.495 -12 7 C-11.34 5.68 -10.68 4.36 -10 3 C-7.3815294 -0.85879878 -4.39190169 -0.61640726 0 0 Z " fill="#C6C6C6" transform="translate(84,6)"/>
<path d="M0 0 C10.81782628 -0.56714817 10.81782628 -0.56714817 15 3 C17.99328062 6.00432594 18.94682444 7.48685581 19.390625 11.76953125 C19.36431837 13.11774585 19.31701804 14.46569518 19.25 15.8125 C19.23195313 16.50537109 19.21390625 17.19824219 19.1953125 17.91210938 C19.14851064 19.60867664 19.07677624 21.30452476 19 23 C19.66 23.33 20.32 23.66 21 24 C21.66 24.33 22.32 24.66 23 25 C25.45741537 25.50014953 25.45741537 25.50014953 28 25 C29.7536564 22.66057656 29.7536564 22.66057656 31 20 C31.66 19.34 32.32 18.68 33 18 C35 20 35 20 35.125 23.625 C35.08375 24.73875 35.0425 25.8525 35 27 C34.01 27.33 33.02 27.66 32 28 C32 28.66 32 29.32 32 30 C20.82493564 30.39058477 20.82493564 30.39058477 17 28 C15.04608361 24.88769033 14.70352481 22.25791791 14.5 18.625 C14.02997755 12.62754341 14.02997755 12.62754341 12 7 C9.96756452 6.03122943 9.96756452 6.03122943 8 6 C8 5.34 8 4.68 8 4 C5.69 4 3.38 4 1 4 C0.67 2.68 0.34 1.36 0 0 Z " fill="#B2B2B2" transform="translate(8,26)"/>
<path d="M0 0 C0.33 0.66 0.66 1.32 1 2 C1.99 2.33 2.98 2.66 4 3 C3.67 3.99 3.34 4.98 3 6 C2.91330471 7.51907624 2.882306 9.04169001 2.88647461 10.56323242 C2.88655014 11.48396042 2.88662567 12.40468842 2.88670349 13.35331726 C2.89186478 14.34402725 2.89702606 15.33473724 2.90234375 16.35546875 C2.90446617 17.88062859 2.90446617 17.88062859 2.90663147 19.43659973 C2.91223293 22.68692964 2.92478568 25.93719088 2.9375 29.1875 C2.94251481 31.38997296 2.94707775 33.59244701 2.95117188 35.79492188 C2.96220283 41.19663804 2.97894238 46.59831412 3 52 C1.02 52.66 -0.96 53.32 -3 54 C-2.90789488 46.63078746 -2.80061153 39.26190963 -2.68261719 31.89306641 C-2.64426127 29.38465429 -2.60942025 26.87618592 -2.578125 24.36767578 C-2.53261791 20.76834971 -2.4746 17.16941317 -2.4140625 13.5703125 C-2.40251129 12.44319855 -2.39096008 11.31608459 -2.37905884 10.15481567 C-2.35918915 9.11388763 -2.33931946 8.07295959 -2.31884766 7.00048828 C-2.30552399 6.08115509 -2.29220032 5.1618219 -2.2784729 4.21463013 C-2 2 -2 2 0 0 Z " fill="#C0C0C0" transform="translate(5,13)"/>
<path d="M0 0 C32.67 0.495 32.67 0.495 66 1 C64.68 1.33 63.36 1.66 62 2 C62 2.66 62 3.32 62 4 C54.2115365 4.04629055 46.42310508 4.08185242 38.63453865 4.10362434 C35.01819127 4.11407249 31.40193784 4.12825032 27.78564453 4.15087891 C24.29731189 4.1725708 20.80906976 4.18456085 17.3206749 4.18975449 C15.33860029 4.19526169 13.35656221 4.21088034 11.37454224 4.22659302 C10.17344818 4.22674408 8.97235413 4.22689514 7.73486328 4.22705078 C6.67341095 4.231492 5.61195862 4.23593323 4.51834106 4.24050903 C2 4 2 4 0 2 C0 1.34 0 0.68 0 0 Z " fill="#F1F1F1" transform="translate(6,12)"/>
<path d="M0 0 C22.11 0 44.22 0 67 0 C67 0.33 67 0.66 67 1 C58.42 1 49.84 1 41 1 C41 2.32 41 3.64 41 5 C41.66 5 42.32 5 43 5 C43.2475 5.94875 43.495 6.8975 43.75 7.875 C44.6857077 11.08693191 44.6857077 11.08693191 47.125 12.375 C47.74375 12.58125 48.3625 12.7875 49 13 C49 13.99 49 14.98 49 16 C40.75 16 32.5 16 24 16 C24.33 15.34 24.66 14.68 25 14 C30.61 14 36.22 14 42 14 C39.525 11.03 39.525 11.03 37 8 C37.33 5.69 37.66 3.38 38 1 C25.46 1 12.92 1 0 1 C0 0.67 0 0.34 0 0 Z " fill="#D8D8D8" transform="translate(9,67)"/>
<path d="M0 0 C2.0625 1.75 2.0625 1.75 4 4 C3.67 5.32 3.34 6.64 3 8 C7.62 8 12.24 8 17 8 C17 8.66 17 9.32 17 10 C8.585 10.495 8.585 10.495 0 11 C7.92 11.33 15.84 11.66 24 12 C24.33 11.01 24.66 10.02 25 9 C25 10.65 25 12.3 25 14 C14.44 13.67 3.88 13.34 -7 13 C-7.33 11.68 -7.66 10.36 -8 9 C-7.030625 8.608125 -6.06125 8.21625 -5.0625 7.8125 C-1.78124773 6.33333184 -1.78124773 6.33333184 -1.1875 3.375 C-1.125625 2.59125 -1.06375 1.8075 -1 1 C-0.67 0.67 -0.34 0.34 0 0 Z " fill="#9B9B9B" transform="translate(34,71)"/>
<path d="M0 0 C10.81782628 -0.56714817 10.81782628 -0.56714817 15 3 C17.3125 5.6875 17.3125 5.6875 19 8 C18.68289062 8.54140625 18.36578125 9.0828125 18.0390625 9.640625 C16.81692026 12.4157149 16.59056564 14.73208098 16.375 17.75 C16.30023437 18.73484375 16.22546875 19.7196875 16.1484375 20.734375 C16.09945313 21.48203125 16.05046875 22.2296875 16 23 C15.67 23 15.34 23 15 23 C14.95101563 22.34773438 14.90203125 21.69546875 14.8515625 21.0234375 C14.30093208 13.80295392 14.30093208 13.80295392 12 7 C9.96756452 6.03122943 9.96756452 6.03122943 8 6 C8 5.34 8 4.68 8 4 C5.69 4 3.38 4 1 4 C0.67 2.68 0.34 1.36 0 0 Z " fill="#A7A7A7" transform="translate(8,26)"/>
<path d="M0 0 C22.11 0 44.22 0 67 0 C67 0.33 67 0.66 67 1 C58.42 1 49.84 1 41 1 C41 2.98 41 4.96 41 7 C40.01 6.67 39.02 6.34 38 6 C38 4.35 38 2.7 38 1 C25.46 1 12.92 1 0 1 C0 0.67 0 0.34 0 0 Z " fill="#EFEFEF" transform="translate(9,67)"/>
<path d="M0 0 C8.58 0 17.16 0 26 0 C26 0.99 26 1.98 26 3 C17.75 3 9.5 3 1 3 C0.67 2.01 0.34 1.02 0 0 Z " fill="#D5D5D5" transform="translate(50,68)"/>
<path d="M0 0 C0.33 0 0.66 0 1 0 C1.33 14.19 1.66 28.38 2 43 C2.66 43.33 3.32 43.66 4 44 C3.01 44.99 2.02 45.98 1 47 C0.01 46.67 -0.98 46.34 -2 46 C-2.042721 44.33388095 -2.04063832 42.66617115 -2 41 C-1.505 40.505 -1.505 40.505 -1 40 C-0.92372898 37.2117223 -0.90927971 34.44795413 -0.9375 31.66015625 C-0.94128662 30.82286484 -0.94507324 29.98557343 -0.94897461 29.12290955 C-0.96539368 25.52564667 -0.99349749 21.92849527 -1.02050781 18.33129883 C-1.03853273 15.71175659 -1.05066658 13.09223257 -1.0625 10.47265625 C-1.07079834 9.65491226 -1.07909668 8.83716827 -1.08764648 7.99464417 C-1.11280644 2.22561287 -1.11280644 2.22561287 0 0 Z " fill="#525252" transform="translate(78,24)"/>
<path d="M0 0 C0.99 0.66 1.98 1.32 3 2 C3.1875 5.625 3.1875 5.625 3 9 C2.01 9.33 1.02 9.66 0 10 C0 10.66 0 11.32 0 12 C-0.53625 11.690625 -1.0725 11.38125 -1.625 11.0625 C-4.3984957 9.82172561 -7.00042837 9.4090325 -10 9 C-9.67 8.34 -9.34 7.68 -9 7 C-8.236875 7.103125 -7.47375 7.20625 -6.6875 7.3125 C-5.800625 7.209375 -4.91375 7.10625 -4 7 C-2.17394457 4.67881567 -2.17394457 4.67881567 -1 2 C-0.67 1.34 -0.34 0.68 0 0 Z " fill="#B8B8B8" transform="translate(40,44)"/>
<path d="M0 0 C2.5625 2.1875 2.5625 2.1875 5 5 C4.8125 7.8125 4.8125 7.8125 4 10 C3.67 9.34 3.34 8.68 3 8 C1.68 8.33 0.36 8.66 -1 9 C-0.67 8.01 -0.34 7.02 0 6 C-0.99 5.67 -1.98 5.34 -3 5 C-2.67 4.01 -2.34 3.02 -2 2 C-1.34 2 -0.68 2 0 2 C0 1.34 0 0.68 0 0 Z " fill="#A3A3A3" transform="translate(83,6)"/>
<path d="M0 0 C0.66 0 1.32 0 2 0 C2 4.29 2 8.58 2 13 C1.01 13 0.02 13 -1 13 C-1.02686553 11.02090602 -1.04633375 9.04171029 -1.0625 7.0625 C-1.07410156 5.96035156 -1.08570312 4.85820313 -1.09765625 3.72265625 C-1 1 -1 1 0 0 Z " fill="#E2E2E2" transform="translate(25,37)"/>
<path d="M0 0 C2.97 0 5.94 0 9 0 C8.67 0.99 8.34 1.98 8 3 C5.69 3 3.38 3 1 3 C0.67 2.01 0.34 1.02 0 0 Z " fill="#D8D8D8" transform="translate(38,68)"/>
<path d="M0 0 C1.32 0 2.64 0 4 0 C4 0.66 4 1.32 4 2 C4.66 2.33 5.32 2.66 6 3 C5.01 3.99 4.02 4.98 3 6 C2.01 5.67 1.02 5.34 0 5 C0 3.35 0 1.7 0 0 Z " fill="#9F9F9F" transform="translate(76,65)"/>
<path d="M0 0 C1.32 1.32 2.64 2.64 4 4 C3.34 5.32 2.68 6.64 2 8 C1.67 7.01 1.34 6.02 1 5 C0.01 5 -0.98 5 -2 5 C-1.34 3.35 -0.68 1.7 0 0 Z " fill="#838383" transform="translate(34,71)"/>
<path d="M0 0 C0.66 0.33 1.32 0.66 2 1 C2.625 3.5625 2.625 3.5625 3 6 C2.46375 5.690625 1.9275 5.38125 1.375 5.0625 C-1.3984957 3.82172561 -4.00042837 3.4090325 -7 3 C-6.67 2.34 -6.34 1.68 -6 1 C-4.7934375 1.0309375 -4.7934375 1.0309375 -3.5625 1.0625 C-1.06645115 1.29633621 -1.06645115 1.29633621 0 0 Z " fill="#888888" transform="translate(37,50)"/>
<path d="M0 0 C1.65 0 3.3 0 5 0 C5.33 0.99 5.66 1.98 6 3 C3.69 3 1.38 3 -1 3 C-0.67 2.01 -0.34 1.02 0 0 Z " fill="#D9D9D9" transform="translate(31,53)"/>
<path d="M0 0 C0.99 0 1.98 0 3 0 C3.33 1.98 3.66 3.96 4 6 C2.68 5.67 1.36 5.34 0 5 C0 3.35 0 1.7 0 0 Z " fill="#E0E0E0" transform="translate(35,68)"/>
<path d="M0 0 C0.99 0 1.98 0 3 0 C3 1.98 3 3.96 3 6 C2.01 5.67 1.02 5.34 0 5 C0 3.35 0 1.7 0 0 Z " fill="#F5F5F5" transform="translate(47,68)"/>
<path d="" fill="#000000" transform="translate(0,0)"/>
<path d="" fill="#000000" transform="translate(0,0)"/>
<path d="" fill="#000000" transform="translate(0,0)"/>
<path d="" fill="#000000" transform="translate(0,0)"/>
<path d="" fill="#000000" transform="translate(0,0)"/>
<path d="" fill="#000000" transform="translate(0,0)"/>
<path d="" fill="#000000" transform="translate(0,0)"/>
<path d="" fill="#000000" transform="translate(0,0)"/>
<path d="" fill="#000000" transform="translate(0,0)"/>
<path d="" fill="#000000" transform="translate(0,0)"/>
<path d="" fill="#000000" transform="translate(0,0)"/>
<path d="" fill="#000000" transform="translate(0,0)"/>
<path d="" fill="#000000" transform="translate(0,0)"/>
<path d="" fill="#000000" transform="translate(0,0)"/>
<path d="" fill="#000000" transform="translate(0,0)"/>
<path d="" fill="#000000" transform="translate(0,0)"/>
<path d="" fill="#000000" transform="translate(0,0)"/>
<path d="" fill="#000000" transform="translate(0,0)"/>
<path d="" fill="#000000" transform="translate(0,0)"/>
<path d="" fill="#000000" transform="translate(0,0)"/>
<path d="" fill="#000000" transform="translate(0,0)"/>
<path d="" fill="#000000" transform="translate(0,0)"/>
<path d="" fill="#000000" transform="translate(0,0)"/>
<path d="" fill="#000000" transform="translate(0,0)"/>
<path d="" fill="#000000" transform="translate(0,0)"/>
<path d="" fill="#000000" transform="translate(0,0)"/>
<path d="" fill="#000000" transform="translate(0,0)"/>
<path d="" fill="#000000" transform="translate(0,0)"/>
<path d="" fill="#000000" transform="translate(0,0)"/>
<path d="" fill="#000000" transform="translate(0,0)"/>
<path d="" fill="#000000" transform="translate(0,0)"/>
<path d="" fill="#000000" transform="translate(0,0)"/>
<path d="" fill="#000000" transform="translate(0,0)"/>
<path d="" fill="#000000" transform="translate(0,0)"/>
<path d="" fill="#000000" transform="translate(0,0)"/>
<path d="" fill="#000000" transform="translate(0,0)"/>
<path d="" fill="#000000" transform="translate(0,0)"/>
<path d="" fill="#000000" transform="translate(0,0)"/>
<path d="" fill="#000000" transform="translate(0,0)"/>
<path d="" fill="#000000" transform="translate(0,0)"/>
<path d="" fill="#000000" transform="translate(0,0)"/>
<path d="" fill="#000000" transform="translate(0,0)"/>
<path d="" fill="#000000" transform="translate(0,0)"/>
<path d="" fill="#000000" transform="translate(0,0)"/>
<path d="" fill="#000000" transform="translate(0,0)"/>
<path d="" fill="#000000" transform="translate(0,0)"/>
<path d="" fill="#000000" transform="translate(0,0)"/>
<path d="" fill="#000000" transform="translate(0,0)"/>
<path d="" fill="#000000" transform="translate(0,0)"/>
<path d="" fill="#000000" transform="translate(0,0)"/>
<path d="" fill="#000000" transform="translate(0,0)"/>
<path d="" fill="#000000" transform="translate(0,0)"/>
<path d="" fill="#000000" transform="translate(0,0)"/>
<path d="" fill="#000000" transform="translate(0,0)"/>
<path d="" fill="#000000" transform="translate(0,0)"/>
<path d="" fill="#000000" transform="translate(0,0)"/>
<path d="" fill="#000000" transform="translate(0,0)"/>
<path d="" fill="#000000" transform="translate(0,0)"/>
<path d="" fill="#000000" transform="translate(0,0)"/>
<path d="" fill="#000000" transform="translate(0,0)"/>
<path d="" fill="#000000" transform="translate(0,0)"/>
<path d="" fill="#000000" transform="translate(0,0)"/>
<path d="" fill="#000000" transform="translate(0,0)"/>
<path d="" fill="#000000" transform="translate(0,0)"/>
<path d="" fill="#000000" transform="translate(0,0)"/>
<path d="" fill="#000000" transform="translate(0,0)"/>
<path d="" fill="#000000" transform="translate(0,0)"/>
<path d="" fill="#000000" transform="translate(0,0)"/>
<path d="" fill="#000000" transform="translate(0,0)"/>
<path d="" fill="#000000" transform="translate(0,0)"/>
<path d="" fill="#000000" transform="translate(0,0)"/>
<path d="" fill="#000000" transform="translate(0,0)"/>
<path d="" fill="#000000" transform="translate(0,0)"/>
<path d="" fill="#000000" transform="translate(0,0)"/>
<path d="" fill="#000000" transform="translate(0,0)"/>
<path d="" fill="#000000" transform="translate(0,0)"/>
<path d="" fill="#000000" transform="translate(0,0)"/>
<path d="" fill="#000000" transform="translate(0,0)"/>
<path d="" fill="#000000" transform="translate(0,0)"/>
<path d="" fill="#000000" transform="translate(0,0)"/>
<path d="" fill="#000000" transform="translate(0,0)"/>
</svg>
