<svg width="58" height="56" viewBox="0 0 58 56" fill="none" xmlns="http://www.w3.org/2000/svg">
<path d="M44.5167 12.4443H13.2318V43.5554H44.5167V12.4443Z" fill="#F7DF1E"/>
<path d="M34.2473 36.7499C34.8775 37.7731 35.6974 38.5252 37.1474 38.5252C38.3655 38.5252 39.1437 37.9198 39.1437 37.0832C39.1437 36.0808 38.3442 35.7257 37.0034 35.1425L36.2684 34.8289C34.147 33.9302 32.7377 32.8042 32.7377 30.424C32.7377 28.2314 34.4177 26.5623 37.0431 26.5623C38.9123 26.5623 40.256 27.2092 41.2244 28.903L38.9351 30.3647C38.4311 29.466 37.8873 29.1119 37.0431 29.1119C36.182 29.1119 35.6363 29.6551 35.6363 30.3647C35.6363 31.2418 36.1825 31.5968 37.4439 32.14L38.1788 32.4531C40.6766 33.5183 42.0869 34.6042 42.0869 37.0457C42.0869 39.6778 40.0077 41.1198 37.2154 41.1198C34.4852 41.1198 32.7213 39.826 31.8583 38.1302L34.2473 36.7499ZM23.8622 37.0032C24.3241 37.8181 24.7442 38.5069 25.7542 38.5069C26.7201 38.5069 27.3294 38.1311 27.3294 36.6699V26.7292H30.2692V36.7094C30.2692 39.7366 28.4845 41.1144 25.8794 41.1144C23.5256 41.1144 22.1624 39.903 21.4692 38.444L23.8622 37.0032Z" fill="black"/>
</svg>
