<svg width="57" height="56" viewBox="0 0 57 56" fill="none" xmlns="http://www.w3.org/2000/svg">
<path d="M14.7668 33.6337C14.7966 33.7012 14.8303 33.7634 14.8666 33.8256C14.8834 33.8619 14.9068 33.8995 14.9275 33.9332C14.9612 34.0006 14.9975 34.0654 15.0325 34.1302L15.236 34.4725C15.2736 34.536 15.3099 34.5982 15.3527 34.6604C15.424 34.7823 15.5083 34.9015 15.5821 35.0234C15.6159 35.0739 15.647 35.1245 15.6846 35.1751C15.8271 35.3967 15.9568 35.5808 16.0955 35.7597C16.194 35.8932 16.2925 36.0241 16.3988 36.1551C16.4338 36.2043 16.4727 36.2536 16.509 36.3028L16.7955 36.6503C16.8305 36.6904 16.8655 36.7371 16.9031 36.7786C17.0301 36.9316 17.1649 37.0793 17.2998 37.2297C17.2998 37.2323 17.3036 37.2349 17.3062 37.2388C17.4735 37.4488 17.6537 37.6355 17.8507 37.8014L17.8559 37.8066C17.9596 37.9129 18.0633 38.0179 18.1735 38.1216L18.3044 38.2473C18.4483 38.3821 18.5922 38.5156 18.7438 38.6453C18.7464 38.6453 18.7477 38.6479 18.7503 38.6492L18.8242 38.714C18.9564 38.8293 19.09 38.9434 19.2261 39.0497L19.3881 39.1858C19.4983 39.274 19.6124 39.3569 19.7252 39.4438L19.9015 39.5786C20.022 39.6694 20.1503 39.7575 20.2735 39.8457C20.3189 39.8781 20.3642 39.9105 20.4109 39.9403L20.4485 39.9701L20.8128 40.2086L20.9683 40.3123C21.1589 40.4342 21.3481 40.5483 21.5374 40.6623C21.5918 40.6896 21.6463 40.7194 21.6968 40.7505C21.8368 40.8308 21.982 40.9125 22.1233 40.9864C22.2011 41.0305 22.2815 41.0681 22.3618 41.1083C22.4591 41.1627 22.5602 41.2159 22.6639 41.2703C22.6924 41.2794 22.7157 41.2884 22.7391 41.3014L22.7443 41.2962C22.787 41.3157 22.8272 41.3364 22.8687 41.3572C23.0243 41.4349 23.1863 41.5088 23.3548 41.5814C23.3859 41.5944 23.4196 41.6073 23.4533 41.6255C23.64 41.7072 23.8267 41.7849 24.0198 41.8601C24.0639 41.8731 24.1106 41.8951 24.1559 41.912C24.3309 41.9781 24.5111 42.0455 24.69 42.109L24.7548 42.1323C24.9532 42.1998 25.1489 42.2646 25.3511 42.3255C25.3978 42.3385 25.4458 42.3553 25.495 42.3683C25.7011 42.4305 25.9008 42.5044 26.1095 42.5433C39.4265 44.9583 43.296 34.5762 43.296 34.5762C40.0448 38.7892 34.2749 39.9001 28.811 38.6634C28.6088 38.6168 28.4065 38.5519 28.2017 38.4923C27.9126 38.4105 27.626 38.3201 27.3423 38.2214L27.4654 38.259L27.3851 38.2279C27.2088 38.1682 27.0389 38.1021 26.8665 38.036C26.8243 38.0181 26.7815 38.0017 26.7382 37.9867L26.7239 37.9829C26.5334 37.9064 26.348 37.8286 26.1639 37.7469C26.1237 37.734 26.09 37.7158 26.0499 37.7003C25.8318 37.6052 25.6157 37.5058 25.4017 37.4021L25.5806 37.4812C25.5339 37.4606 25.4881 37.4381 25.4432 37.4138C25.3213 37.3567 25.1995 37.2919 25.0802 37.231C24.9894 37.188 24.8999 37.1421 24.8119 37.0936L24.8378 37.1066C24.6913 37.0288 24.5448 36.9445 24.3971 36.8654C24.353 36.8343 24.3024 36.8084 24.2519 36.7799C24.0322 36.6522 23.8152 36.52 23.6011 36.3832L23.6828 36.4325C23.6279 36.3986 23.5743 36.3627 23.522 36.3249L23.5298 36.3301C23.3905 36.2445 23.2539 36.1546 23.1202 36.0604C23.0761 36.0319 23.0359 36.0008 22.9906 35.9697C22.8509 35.8744 22.7134 35.7758 22.5783 35.6741L22.6094 35.6962C22.555 35.6521 22.4967 35.6106 22.4383 35.5678C22.3243 35.4784 22.2089 35.3928 22.0948 35.2995L21.9418 35.1777C21.7788 35.0479 21.6189 34.9144 21.4622 34.7771L21.4609 34.7758L21.0111 34.3675L20.8815 34.2456C20.7752 34.138 20.6663 34.0356 20.5574 33.9293L20.4316 33.7997C20.2974 33.6668 20.1665 33.5306 20.0389 33.3913L20.0311 33.3823L20.009 33.3641C19.8718 33.2134 19.7365 33.0608 19.6033 32.9065C19.5683 32.8663 19.5359 32.8236 19.4996 32.7808L19.2053 32.4243C19.0727 32.2577 18.943 32.0887 18.8164 31.9174L18.7646 31.8448C15.7338 27.7278 14.6371 22.046 17.0625 17.3845L14.921 20.0925C12.1664 24.032 12.5073 29.155 14.6138 33.3382C14.6618 33.4406 14.7149 33.5365 14.7668 33.6337Z" fill="#1266A9"/>
<path d="M24.0444 27.9584L24.0302 27.9377L24.0185 27.9221L24.0444 27.9584Z" fill="black"/>
<path d="M25.4937 29.659L25.6104 29.7757C25.7582 29.9183 25.9098 30.057 26.0641 30.1957L26.0835 30.2126C26.2391 30.35 26.4141 30.4939 26.5943 30.6339L26.6215 30.6546C26.6656 30.6844 26.7032 30.7194 26.7459 30.7492C26.9274 30.8892 27.1102 31.0228 27.3008 31.1563L27.3202 31.168C27.4006 31.2263 27.4861 31.2794 27.5769 31.3365C27.6132 31.3598 27.6547 31.3909 27.6936 31.4142C27.831 31.5024 27.9658 31.5841 28.1045 31.6683C28.1265 31.6774 28.146 31.6891 28.1667 31.6981C28.2834 31.7694 28.4104 31.8381 28.5323 31.9004C28.575 31.9263 28.6165 31.9457 28.6606 31.9704C28.7474 32.0131 28.833 32.0585 28.916 32.1026L28.9575 32.1207C29.1325 32.2063 29.3113 32.2867 29.4863 32.3657C29.5304 32.3826 29.568 32.3969 29.6056 32.415C29.7495 32.4772 29.896 32.5369 30.0399 32.5913C30.1047 32.6133 30.1656 32.6393 30.2265 32.6587C30.3588 32.708 30.4975 32.7533 30.6284 32.7987L30.8099 32.857C30.9991 32.9154 31.191 32.9919 31.3919 33.023C41.6755 34.7159 44.0556 26.8383 44.0556 26.8383C41.9128 29.9066 37.7659 31.3689 33.3468 30.2268C33.1262 30.1712 32.9074 30.1085 32.6908 30.0389L32.7647 30.0596C32.7025 30.0428 32.648 30.0233 32.5884 30.0052C32.4536 29.9585 32.3149 29.9131 32.184 29.8652L31.9973 29.7952C31.8521 29.7368 31.7043 29.6824 31.563 29.6202C31.519 29.6007 31.4788 29.5877 31.4451 29.5683C31.2636 29.4866 31.0808 29.4063 30.9032 29.3207L30.6362 29.182L30.4819 29.1042C30.3627 29.042 30.2525 28.9772 30.1384 28.9111C30.1093 28.8974 30.0811 28.8818 30.0541 28.8644L30.058 28.8657C29.9206 28.7801 29.778 28.6972 29.6458 28.6103C29.6017 28.5857 29.5615 28.5559 29.52 28.53L29.2504 28.355C29.0637 28.2253 28.881 28.0866 28.6956 27.9518C28.6541 27.9142 28.6139 27.8831 28.5737 27.8494C26.6306 26.3288 25.0983 24.2508 24.3711 21.898C23.605 19.4519 23.7735 16.7089 25.097 14.4832L23.4702 16.775C21.4726 19.6282 21.5853 23.4419 23.1409 26.4598C23.4248 27.0172 23.7126 27.4877 24.0302 27.9363C24.3257 28.3588 24.6524 28.854 25.0465 29.1937C25.1865 29.3531 25.3369 29.5048 25.4937 29.659Z" fill="#1266A9"/>
<path d="M16.102 35.7674L16.0968 35.7597L16.0877 35.748L16.102 35.7674ZM21.492 34.803L21.505 34.8121L21.5076 34.8159L21.492 34.803Z" fill="black"/>
<path d="M30.6595 14.294C29.4812 16.0142 29.3684 18.1505 30.1799 20.047C31.0419 22.0614 32.8036 23.6429 34.857 24.3922C34.9412 24.4246 35.0229 24.4518 35.1098 24.483L35.2238 24.518C35.3431 24.5555 35.4636 24.5996 35.5868 24.6268C41.2659 25.717 42.8034 21.7257 43.2169 21.1385C41.8648 23.07 39.5976 23.5341 36.8157 22.8613C36.5738 22.8023 36.3357 22.7287 36.1027 22.6409L36.1455 22.6552C35.8556 22.5548 35.5717 22.438 35.2951 22.3052L35.3444 22.3272C34.8129 22.0679 34.3566 21.7879 33.9327 21.4664C31.4464 19.5868 29.909 16.0077 31.5319 13.0923L30.6595 14.294Z" fill="#1266A9"/>
</svg>
