<svg width="57" height="56" viewBox="0 0 57 56" fill="none" xmlns="http://www.w3.org/2000/svg">
<path d="M20.2853 23.5323H26.1532V23.9965H20.8232V27.4898H25.8353V27.9539H20.8232V31.7892H26.2143V32.2534H20.2853V23.5323ZM26.6788 23.5323H27.3023L30.0651 27.3676L32.889 23.5323L36.7299 18.6606L30.4196 27.7707L33.6713 32.2534H33.0234L30.0651 28.1738L27.0945 32.2534H26.4588L29.735 27.7707L26.6788 23.5323ZM33.9036 23.9965V23.5323H40.5905V23.9965H37.5099V32.2534H36.972V23.9965H33.9036Z" fill="black"/>
<path d="M12.9445 23.5322H13.6168L22.8882 37.3394L19.0568 32.2532L13.5068 24.1918L13.4823 32.2532H12.9445V23.5322Z" fill="black"/>
<path d="M40.5364 31.6492C40.6476 31.6492 40.7287 31.5644 40.7287 31.4549C40.7287 31.3454 40.6476 31.2607 40.5364 31.2607C40.4265 31.2607 40.3441 31.3454 40.3441 31.4549C40.3441 31.5644 40.4265 31.6492 40.5364 31.6492ZM41.0649 31.1381C41.0649 31.4615 41.2991 31.6727 41.6405 31.6727C42.0042 31.6727 42.224 31.4549 42.224 31.0769V29.7458H41.931V31.0756C41.931 31.2855 41.825 31.3976 41.6379 31.3976C41.4705 31.3976 41.3566 31.2933 41.3527 31.1381H41.0649ZM42.6073 31.1212C42.6283 31.4575 42.9096 31.6727 43.3282 31.6727C43.7756 31.6727 44.0556 31.4471 44.0556 31.0873C44.0556 30.8044 43.896 30.648 43.5087 30.558L43.3007 30.5072C43.0548 30.4498 42.9553 30.3729 42.9553 30.2386C42.9553 30.0691 43.1097 29.9583 43.3413 29.9583C43.5611 29.9583 43.7128 30.0665 43.7403 30.2399H44.0255C44.0085 29.9231 43.7285 29.7002 43.3452 29.7002C42.9331 29.7002 42.6584 29.9231 42.6584 30.2582C42.6584 30.5345 42.8141 30.6988 43.1555 30.7783L43.3988 30.837C43.6487 30.8957 43.7586 30.9817 43.7586 31.1251C43.7586 31.292 43.5859 31.4132 43.3504 31.4132C43.0979 31.4132 42.9226 31.2998 42.8978 31.1212H42.6073Z" fill="black"/>
</svg>
