<?xml version="1.0" encoding="UTF-8"?>
<svg version="1.1" xmlns="http://www.w3.org/2000/svg" width="94" height="94">
<path d="M0 0 C3.19218343 0.85124892 5.47399831 1.4915317 7.875 3.8125 C9.20193689 6.39265507 9.23861338 8.13663949 9 11 C6.42033135 12.28983433 3.73407425 13.08864192 1 14 C0.67 14.99 0.34 15.98 0 17 C-0.66 17.66 -1.32 18.32 -2 19 C-2.12559409 20.93863545 -2.12559409 20.93863545 -1 23 C0.89828075 24.8456968 2.89024592 26.38401815 5 28 C9.29888613 26.48134786 9.29888613 26.48134786 13 24 C12.94117554 22.60291918 12.85277989 21.20703628 12.75 19.8125 C12.70506832 16.28536332 13.00953746 14.32209411 15.25 11.5625 C19.76030901 7.35971206 23.46730717 6.13329962 29.5625 5.8125 C34.52218634 6.08302835 36.73034269 8.51939706 40 12 C40.66 12.99 41.32 13.98 42 15 C41.67 15.66 41.34 16.32 41 17 C41.66 17.33 42.32 17.66 43 18 C43.31416607 23.23610116 42.77647622 26.51492303 40 31 C39.01 31.495 39.01 31.495 38 32 C37.54625 32.495 37.0925 32.99 36.625 33.5 C34.11865787 35.81354658 31.85460633 36.01730511 28.4921875 35.94921875 C27.62851563 35.86285156 26.76484375 35.77648438 25.875 35.6875 C25.00617188 35.60886719 24.13734375 35.53023437 23.2421875 35.44921875 C21 35 21 35 19 33 C15.32426506 30.51065383 15.32426506 30.51065383 11 30 C8.81222534 31.9375006 8.81222534 31.9375006 7 34 C7.33 34.66 7.66 35.32 8 36 C7.67 36.66 7.34 37.32 7 38 C7.66 38.33 8.32 38.66 9 39 C9 40.98 9 42.96 9 45 C10.6260287 44.93999894 12.25101549 44.8512115 13.875 44.75 C14.77992187 44.70359375 15.68484375 44.6571875 16.6171875 44.609375 C17.79667969 44.30773438 17.79667969 44.30773438 19 44 C19.66 42.68 20.32 41.36 21 40 C23.97 40 26.94 40 30 40 C31.81642495 43.63284989 32.0894502 45.88529062 32 50 C31.01 50.495 31.01 50.495 30 51 C29.01 51.66 28.02 52.32 27 53 C23.375 52.3125 23.375 52.3125 20 51 C19.67 50.01 19.34 49.02 19 48 C15.7 47.67 12.4 47.34 9 47 C8.835 48.60875 8.67 50.2175 8.5 51.875 C8.36078125 53.23238281 8.36078125 53.23238281 8.21875 54.6171875 C7.96952705 56.93313211 7.96952705 56.93313211 8 59 C10.5614657 61.29648649 11.47967572 62 15 62 C15.804375 61.195625 16.60875 60.39125 17.4375 59.5625 C20.03770455 56.96229545 20.57059579 56.50126764 24 56 C26.7265625 56.05078125 26.7265625 56.05078125 29.625 56.3125 C30.58664063 56.39113281 31.54828125 56.46976563 32.5390625 56.55078125 C35 57 35 57 37 59 C37.495 59.45375 37.99 59.9075 38.5 60.375 C41.87139904 64.02734896 42.27405671 67.22945987 42.25 72.125 C42.25773437 73.70667969 42.25773437 73.70667969 42.265625 75.3203125 C42 78 42 78 40 80 C39.54625 80.495 39.0925 80.99 38.625 81.5 C34.97265104 84.87139904 31.77054013 85.27405671 26.875 85.25 C25.82054687 85.25515625 24.76609375 85.2603125 23.6796875 85.265625 C21 85 21 85 19 83 C18.154375 82.4225 17.30875 81.845 16.4375 81.25 C13.41374766 78.458844 13.2427528 77.04587998 13 73 C12.96296931 71.00034285 12.95239444 68.99943335 13 67 C12.34 67 11.68 67 11 67 C10.34 66.34 9.68 65.68 9 65 C6.42938689 64.35232207 6.42938689 64.35232207 4 64 C3.071875 65.175625 3.071875 65.175625 2.125 66.375 C0 69 0 69 -2 71 C-2 71.99 -2 72.98 -2 74 C-1.01 74.66 -0.02 75.32 1 76 C1.33 76.99 1.66 77.98 2 79 C3.65 79 5.3 79 7 79 C9.19402985 83.3880597 9.19402985 83.3880597 8.1875 86.5625 C7 89 7 89 5 91 C1.375 91.125 1.375 91.125 -2 91 C-4.59163766 87.18876815 -3.62645212 84.38516486 -3 80 C-3.83948035 77.48155894 -4.60660549 76.33287228 -6.625 74.625 C-8.6802674 72.19604762 -8.20441794 70.06626911 -8 67 C-7.1028125 66.5978125 -7.1028125 66.5978125 -6.1875 66.1875 C-4.00283415 65.00153854 -2.66764721 63.8192515 -1 62 C-0.34 61.34 0.32 60.68 1 60 C1.67939174 58.00428677 2.34561559 56.00405227 3 54 C3.66 53.01 4.32 52.02 5 51 C5.45601261 48.49103314 5.45601261 48.49103314 5.625 45.8125 C5.69976562 44.91144531 5.77453125 44.01039062 5.8515625 43.08203125 C5.90054688 42.39496094 5.94953125 41.70789062 6 41 C5.34 40.67 4.68 40.34 4 40 C4.33 39.34 4.66 38.68 5 38 C4.34 38 3.68 38 3 38 C2.71125 37.05125 2.4225 36.1025 2.125 35.125 C1.23174891 31.94788422 1.23174891 31.94788422 -1 30 C-2.66666667 28.33333333 -4.33333333 26.66666667 -6 25 C-6.66 24.67 -7.32 24.34 -8 24 C-8.1875 21.6875 -8.1875 21.6875 -8 19 C-7.02246356 17.97803008 -6.0194119 16.98020375 -5 16 C-3.45379565 12.52104021 -2.87135334 10.64323329 -3.625 6.875 C-3.74875 5.92625 -3.8725 4.9775 -4 4 C-2.0625 1.625 -2.0625 1.625 0 0 Z M1 5 C0.26676204 7.01508358 0.26676204 7.01508358 0 9 C1.32 9.33 2.64 9.66 4 10 C4 9.34 4 8.68 4 8 C4.66 8 5.32 8 6 8 C5.67 6.68 5.34 5.36 5 4 C3.63106761 3.94729537 3.63106761 3.94729537 1 5 Z M25 9 C25 9.66 25 10.32 25 11 C27.475 11.495 27.475 11.495 30 12 C30 11.01 30 10.02 30 9 C28.35 9 26.7 9 25 9 Z M32 10 C31.01 11.485 31.01 11.485 30 13 C30.80648688 16.65670531 30.80648688 16.65670531 32 20 C31.34 20 30.68 20 30 20 C30.33 20.99 30.66 21.98 31 23 C31.66 23.33 32.32 23.66 33 24 C33.99 24.66 34.98 25.32 36 26 C36.99 25.67 37.98 25.34 39 25 C39 22.36 39 19.72 39 17 C38.34 17 37.68 17 37 17 C37.33 16.01 37.66 15.02 38 14 C35.28996707 11.32668287 35.28996707 11.32668287 32 10 Z M20.4375 11.6875 C17.83093315 12.74879337 17.83093315 12.74879337 17.1875 15.125 C17.125625 15.74375 17.06375 16.3625 17 17 C16.67 17 16.34 17 16 17 C16 19.31 16 21.62 16 24 C17.98 24.99 17.98 24.99 20 26 C20.37125 25.525625 20.7425 25.05125 21.125 24.5625 C23.62646962 22.47794198 25.81593418 22.35378509 29 22 C29 21.34 29 20.68 29 20 C26.53673288 18.3553326 26.53673288 18.3553326 24 17 C24.33 15.35 24.66 13.7 25 12 C22.96444412 10.70567636 22.96444412 10.70567636 20.4375 11.6875 Z M27 14 C27 14.99 27 15.98 27 17 C27.66 16.01 28.32 15.02 29 14 C28.34 14 27.68 14 27 14 Z M22 28 C21.34 28.66 20.68 29.32 20 30 C20.99 30.495 20.99 30.495 22 31 C22.66 30.67 23.32 30.34 24 30 C24 30.66 24 31.32 24 32 C26.64 32 29.28 32 32 32 C32.66 30.35 33.32 28.7 34 27 C28.78993488 24.74699887 26.45709411 24.26179204 22 28 Z M26 43 C25.34 43.66 24.68 44.32 24 45 C24.3185177 47.10820797 24.3185177 47.10820797 25 49 C25.66 49 26.32 49 27 49 C27 48.34 27 47.68 27 47 C27.66 47 28.32 47 29 47 C29 46.34 29 45.68 29 45 C28.34 45 27.68 45 27 45 C26.67 44.34 26.34 43.68 26 43 Z M26 59 C26.33 59.99 26.66 60.98 27 62 C27.99 62 28.98 62 30 62 C30 61.01 30 60.02 30 59 C28.68 59 27.36 59 26 59 Z M23 60 C22.071875 60.9590625 22.071875 60.9590625 21.125 61.9375 C19 64 19 64 17 65 C16.53476937 66.89533342 16.53476937 66.89533342 16.375 69.0625 C16.25125 70.361875 16.1275 71.66125 16 73 C16.66 73 17.32 73 18 73 C17.67 73.99 17.34 74.98 17 76 C17.5775 75.690625 18.155 75.38125 18.75 75.0625 C23.18328266 72.96900541 27.08527408 72.64894815 32 73 C34.25 74.5 34.25 74.5 36 76 C36.99 76 37.98 76 39 76 C39.19177381 71.2056548 38.95246703 67.41874118 37 63 C36.01 62.34 35.02 61.68 34 61 C32.35444301 62.22809091 32.35444301 62.22809091 31 64 C31.22757731 66.16299211 31.22757731 66.16299211 32 68 C31.01 68.66 30.02 69.32 29 70 C27.0625 69.3125 27.0625 69.3125 25 68 C24.3125 65.5625 24.3125 65.5625 24 63 C23.67 62.01 23.34 61.02 23 60 Z M26 65 C27 67 27 67 27 67 Z M22.625 77 C22.08875 77.66 21.5525 78.32 21 79 C21.99 80.485 21.99 80.485 23 82 C25.20725073 82.36362818 25.20725073 82.36362818 27.625 82.1875 C28.44226563 82.16042969 29.25953125 82.13335937 30.1015625 82.10546875 C30.72804688 82.07066406 31.35453125 82.03585938 32 82 C32 81.34 32 80.68 32 80 C32.66 79.67 33.32 79.34 34 79 C33.67 78.01 33.34 77.02 33 76 C29.09487724 74.04743862 25.95560215 74.1952824 22.625 77 Z M1 82 C-0.24546405 84.49092811 0.2232422 85.41080733 1 88 C2.65 87.67 4.3 87.34 6 87 C6 86.01 6 85.02 6 84 C5.34 84 4.68 84 4 84 C4 83.34 4 82.68 4 82 C3.01 82 2.02 82 1 82 Z " fill="#C2BAB4" transform="translate(47,1)"/>
<path d="M0 0 C0.69931641 -0.020625 1.39863281 -0.04125 2.11914062 -0.0625 C6.90303818 -0.09830092 10.14201356 0.69690337 14.1875 3.25 C15.375 5.375 15.375 5.375 16.1875 7.25 C17.1775 7.58 18.1675 7.91 19.1875 8.25 C23.39327882 14.79232261 23.01578616 22.72234046 22.1875 30.25 C20.41973499 34.56016862 19.43375294 36.40995706 15.1875 38.25 C14.8575 39.24 14.5275 40.23 14.1875 41.25 C7.64131017 45.45826489 -0.29458902 44.89177289 -7.8125 44.25 C-10.7109375 43.35546875 -10.7109375 43.35546875 -12.8125 42.25 C-13.1425 41.59 -13.4725 40.93 -13.8125 40.25 C-15.64800797 38.35330843 -17.49029231 36.52447322 -19.5 34.8125 C-22.68827105 31.01693923 -21.97704731 25.24943938 -22 20.5625 C-22.01224609 19.88638672 -22.02449219 19.21027344 -22.03710938 18.51367188 C-22.0423516 16.75752573 -21.93482123 15.00188878 -21.8125 13.25 C-21.1525 12.59 -20.4925 11.93 -19.8125 11.25 C-19.4825 10.59 -19.1525 9.93 -18.8125 9.25 C-17.16761706 7.56183067 -15.49912458 5.89646685 -13.8125 4.25 C-13.27625 3.6725 -12.74 3.095 -12.1875 2.5 C-8.82070897 -0.56071912 -4.26883653 0.03096164 0 0 Z M-4.8125 3.25 C-4.8125 3.91 -4.8125 4.57 -4.8125 5.25 C-5.84375 5.270625 -6.875 5.29125 -7.9375 5.3125 C-12.99325514 6.53566657 -15.03303028 8.97819754 -17.8125 13.25 C-18.90756492 16.53519475 -18.91210608 18.98663415 -18.875 22.4375 C-18.86597656 23.52417969 -18.85695313 24.61085938 -18.84765625 25.73046875 C-18.83605469 26.56191406 -18.82445312 27.39335938 -18.8125 28.25 C-18.1525 28.25 -17.4925 28.25 -16.8125 28.25 C-16.4825 29.57 -16.1525 30.89 -15.8125 32.25 C-12.85611101 31.29117114 -11.17105201 30.74300902 -9.3125 28.1875 C-7.8125 26.25 -7.8125 26.25 -5.5625 25.5 C0.41331523 24.95674407 4.14150459 24.74583652 9.1875 28.25 C10.1775 28.58 11.1675 28.91 12.1875 29.25 C13.875 30.8125 13.875 30.8125 15.1875 32.25 C16.1775 31.26 17.1675 30.27 18.1875 29.25 C17.6925 28.26 17.6925 28.26 17.1875 27.25 C17.8475 27.25 18.5075 27.25 19.1875 27.25 C19.1875 23.95 19.1875 20.65 19.1875 17.25 C18.5275 17.25 17.8675 17.25 17.1875 17.25 C17.04054687 16.63511719 16.89359375 16.02023438 16.7421875 15.38671875 C15.3085475 9.94146056 15.3085475 9.94146056 11.1875 6.3125 C10.1975 5.961875 9.2075 5.61125 8.1875 5.25 C7.1975 4.59 6.2075 3.93 5.1875 3.25 C2.67165109 3.00849227 2.67165109 3.00849227 0 3.125 C-1.35158203 3.15207031 -1.35158203 3.15207031 -2.73046875 3.1796875 C-3.76107422 3.21449219 -3.76107422 3.21449219 -4.8125 3.25 Z M-6.5 30.5 C-7.10199219 30.91765625 -7.70398438 31.3353125 -8.32421875 31.765625 C-10.12048628 33.55717792 -10.5496579 34.74289072 -10.8125 37.25 C-9.45805699 39.02190909 -9.45805699 39.02190909 -7.8125 40.25 C-6.8225 39.92 -5.8325 39.59 -4.8125 39.25 C-4.8125 39.91 -4.8125 40.57 -4.8125 41.25 C-1.5125 41.25 1.7875 41.25 5.1875 41.25 C5.1875 40.59 5.1875 39.93 5.1875 39.25 C6.156875 38.96125 7.12625 38.6725 8.125 38.375 C11.29414203 37.60785318 11.29414203 37.60785318 12.1875 35.25 C11.56875 34.63125 10.95 34.0125 10.3125 33.375 C8.9375 32 7.5625 30.625 6.1875 29.25 C1.39939155 27.98997146 -2.36379739 27.52121634 -6.5 30.5 Z " fill="#CDC5BF" transform="translate(26.8125,24.75)"/>
<path d="M0 0 C0.88429688 -0.01417969 1.76859375 -0.02835937 2.6796875 -0.04296875 C6.94437376 0.35897452 9.31897173 3.20043765 12.125 6.1875 C12.785 7.1775 13.445 8.1675 14.125 9.1875 C13.795 9.8475 13.465 10.5075 13.125 11.1875 C13.785 11.5175 14.445 11.8475 15.125 12.1875 C15.43916607 17.42360116 14.90147622 20.70242303 12.125 25.1875 C11.135 25.6825 11.135 25.6825 10.125 26.1875 C9.67125 26.6825 9.2175 27.1775 8.75 27.6875 C6.24365787 30.00104658 3.97960633 30.20480511 0.6171875 30.13671875 C-0.24648437 30.05035156 -1.11015625 29.96398437 -2 29.875 C-2.86882812 29.79636719 -3.73765625 29.71773437 -4.6328125 29.63671875 C-6.875 29.1875 -6.875 29.1875 -8.875 27.1875 C-12.55073494 24.69815383 -12.55073494 24.69815383 -16.875 24.1875 C-17.535 24.8475 -18.195 25.5075 -18.875 26.1875 C-19.535 25.5275 -20.195 24.8675 -20.875 24.1875 C-19.48340337 20.70850842 -18.24248512 19.70697499 -14.875 18.1875 C-14.93300781 17.60742188 -14.99101563 17.02734375 -15.05078125 16.4296875 C-15.29649098 12.17539902 -15.39051345 9.15826275 -12.625 5.75 C-10.33619434 3.61724927 -8.73666103 2.31172398 -5.875 1.1875 C-4.21846314 -0.46903686 -2.26849204 0.01643835 0 0 Z M-2.875 3.1875 C-2.875 3.8475 -2.875 4.5075 -2.875 5.1875 C-0.4 5.6825 -0.4 5.6825 2.125 6.1875 C2.125 5.1975 2.125 4.2075 2.125 3.1875 C0.475 3.1875 -1.175 3.1875 -2.875 3.1875 Z M4.125 4.1875 C3.135 5.6725 3.135 5.6725 2.125 7.1875 C2.93148688 10.84420531 2.93148688 10.84420531 4.125 14.1875 C3.465 14.1875 2.805 14.1875 2.125 14.1875 C2.455 15.1775 2.785 16.1675 3.125 17.1875 C3.785 17.5175 4.445 17.8475 5.125 18.1875 C6.115 18.8475 7.105 19.5075 8.125 20.1875 C9.115 19.8575 10.105 19.5275 11.125 19.1875 C11.125 16.5475 11.125 13.9075 11.125 11.1875 C10.465 11.1875 9.805 11.1875 9.125 11.1875 C9.455 10.1975 9.785 9.2075 10.125 8.1875 C7.41496707 5.51418287 7.41496707 5.51418287 4.125 4.1875 Z M-7.4375 5.875 C-10.04406685 6.93629337 -10.04406685 6.93629337 -10.6875 9.3125 C-10.749375 9.93125 -10.81125 10.55 -10.875 11.1875 C-11.205 11.1875 -11.535 11.1875 -11.875 11.1875 C-11.875 13.4975 -11.875 15.8075 -11.875 18.1875 C-9.895 19.1775 -9.895 19.1775 -7.875 20.1875 C-7.50375 19.713125 -7.1325 19.23875 -6.75 18.75 C-4.24853038 16.66544198 -2.05906582 16.54128509 1.125 16.1875 C1.125 15.5275 1.125 14.8675 1.125 14.1875 C-1.33826712 12.5428326 -1.33826712 12.5428326 -3.875 11.1875 C-3.545 9.5375 -3.215 7.8875 -2.875 6.1875 C-4.91055588 4.89317636 -4.91055588 4.89317636 -7.4375 5.875 Z M-0.875 8.1875 C-0.875 9.1775 -0.875 10.1675 -0.875 11.1875 C-0.215 10.1975 0.445 9.2075 1.125 8.1875 C0.465 8.1875 -0.195 8.1875 -0.875 8.1875 Z M-5.875 22.1875 C-6.535 22.8475 -7.195 23.5075 -7.875 24.1875 C-6.885 24.6825 -6.885 24.6825 -5.875 25.1875 C-5.215 24.8575 -4.555 24.5275 -3.875 24.1875 C-3.875 24.8475 -3.875 25.5075 -3.875 26.1875 C-1.235 26.1875 1.405 26.1875 4.125 26.1875 C4.785 24.5375 5.445 22.8875 6.125 21.1875 C0.91493488 18.93449887 -1.41790589 18.44929204 -5.875 22.1875 Z " fill="#D1C7C3" transform="translate(74.875,6.8125)"/>
<path d="M0 0 C1.95901454 0.11382653 3.9172338 0.24141125 5.875 0.375 C6.96554688 0.44460937 8.05609375 0.51421875 9.1796875 0.5859375 C12 1 12 1 14 3 C14.495 3.45375 14.99 3.9075 15.5 4.375 C18.87139904 8.02734896 19.27405671 11.22945987 19.25 16.125 C19.25515625 17.17945312 19.2603125 18.23390625 19.265625 19.3203125 C19 22 19 22 17 24 C16.54625 24.495 16.0925 24.99 15.625 25.5 C12.39024206 28.48593041 9.60479081 29.25308208 5.25 29.125 C4.45078125 29.10695313 3.6515625 29.08890625 2.828125 29.0703125 C2.22484375 29.04710938 1.6215625 29.02390625 1 29 C3 27 3 27 5.5 26.6875 C6.7375 26.3471875 6.7375 26.3471875 8 26 C9.37466625 23.52363988 9.37466625 23.52363988 10 21 C5.545 20.01 5.545 20.01 1 19 C1.33 18.01 1.66 17.02 2 16 C9.50769231 15.63076923 9.50769231 15.63076923 12 17.5 C12.33 17.995 12.66 18.49 13 19 C13.66 18.67 14.32 18.34 15 18 C14.9129995 16.37399059 14.8048219 14.74910322 14.6875 13.125 C14.60048828 11.76761719 14.60048828 11.76761719 14.51171875 10.3828125 C14.2117961 7.63778399 14.2117961 7.63778399 11 6 C10.34 6.66 9.68 7.32 9 8 C9.32041397 10.60280568 9.32041397 10.60280568 10 13 C8.66666667 13.66666667 7.33333333 14.33333333 6 15 C3.4375 13.875 3.4375 13.875 1 12 C-0.16190374 8.68027502 -0.12383849 7.37151546 1 4 C0.34 3.67 -0.32 3.34 -1 3 C-0.67 2.01 -0.34 1.02 0 0 Z M3 3 C3.33 3.99 3.66 4.98 4 6 C4.99 6 5.98 6 7 6 C7 5.01 7 4.02 7 3 C5.68 3 4.36 3 3 3 Z M3 9 C4 11 4 11 4 11 Z " fill="#CEC1B6" transform="translate(70,57)"/>
<path d="M0 0 C3.19218343 0.85124892 5.47399831 1.4915317 7.875 3.8125 C9.20193689 6.39265507 9.23861338 8.13663949 9 11 C6.42033135 12.28983433 3.73407425 13.08864192 1 14 C0.67 14.99 0.34 15.98 0 17 C-0.66 17.66 -1.32 18.32 -2 19 C-2.12559409 20.93863545 -2.12559409 20.93863545 -1 23 C1.94323835 25.75128802 4.16164755 27.72054918 8 29 C8.6875 31.0625 8.6875 31.0625 9 33 C8.01 33.495 8.01 33.495 7 34 C7.33 34.66 7.66 35.32 8 36 C7.67 36.66 7.34 37.32 7 38 C7.66 38.33 8.32 38.66 9 39 C7.35 39.66 5.7 40.32 4 41 C4.33 40.01 4.66 39.02 5 38 C4.34 38 3.68 38 3 38 C2.71125 37.05125 2.4225 36.1025 2.125 35.125 C1.23174891 31.94788422 1.23174891 31.94788422 -1 30 C-2.66666667 28.33333333 -4.33333333 26.66666667 -6 25 C-6.66 24.67 -7.32 24.34 -8 24 C-8.1875 21.6875 -8.1875 21.6875 -8 19 C-7.02246356 17.97803008 -6.0194119 16.98020375 -5 16 C-3.45379565 12.52104021 -2.87135334 10.64323329 -3.625 6.875 C-3.74875 5.92625 -3.8725 4.9775 -4 4 C-2.0625 1.625 -2.0625 1.625 0 0 Z M1 5 C0.26676204 7.01508358 0.26676204 7.01508358 0 9 C1.32 9.33 2.64 9.66 4 10 C4 9.34 4 8.68 4 8 C4.66 8 5.32 8 6 8 C5.67 6.68 5.34 5.36 5 4 C3.63106761 3.94729537 3.63106761 3.94729537 1 5 Z M7 27 C7.66 27 8.32 27 9 27 C8.67 27.66 8.34 28.32 8 29 C7.67 28.34 7.34 27.68 7 27 Z " fill="#B4ADA8" transform="translate(47,1)"/>
<path d="M0 0 C0.556875 0.53625 1.11375 1.0725 1.6875 1.625 C2.38875 1.975625 3.09 2.32625 3.8125 2.6875 C5.6875 3.625 5.6875 3.625 7.6875 5.625 C7.935 5.00625 8.1825 4.3875 8.4375 3.75 C9.89378639 1.27431313 11.06562506 0.67374998 13.6875 -0.375 C14.7774321 2.99388105 14.75819492 4.43523996 13.5 7.8125 C11.62637447 10.71984996 10.73380328 11.30493525 7.6875 12.625 C7.3575 13.615 7.0275 14.605 6.6875 15.625 C3.125 17.3125 3.125 17.3125 -0.3125 18.625 C-0.9725 16.975 -1.6325 15.325 -2.3125 13.625 C-0.3325 12.635 1.6475 11.645 3.6875 10.625 C1.46821806 7.71697539 -0.24219143 5.67187238 -3.3125 3.625 C-9.01994135 2.97887456 -11.84310416 4.09105911 -16.3125 7.625 C-16.9725 8.285 -17.6325 8.945 -18.3125 9.625 C-18.3125 8.965 -18.3125 8.305 -18.3125 7.625 C-19.3025 7.955 -20.2925 8.285 -21.3125 8.625 C-21.9725 7.965 -22.6325 7.305 -23.3125 6.625 C-22.6525 6.625 -21.9925 6.625 -21.3125 6.625 C-20.9825 5.965 -20.6525 5.305 -20.3125 4.625 C-19.6525 3.965 -18.9925 3.305 -18.3125 2.625 C-17.85875 2.109375 -17.405 1.59375 -16.9375 1.0625 C-12.82705333 -2.57366437 -4.56901844 -2.71671367 0 0 Z " fill="#BAB1AD" transform="translate(34.3125,50.375)"/>
<path d="M0 0 C0.69931641 -0.020625 1.39863281 -0.04125 2.11914062 -0.0625 C6.90303818 -0.09830092 10.14201356 0.69690337 14.1875 3.25 C15.375 5.375 15.375 5.375 16.1875 7.25 C17.1775 7.58 18.1675 7.91 19.1875 8.25 C22.86250879 14.37501465 22.49730184 20.26224743 22.1875 27.25 C21.1975 26.92 20.2075 26.59 19.1875 26.25 C19.1875 23.28 19.1875 20.31 19.1875 17.25 C18.5275 17.25 17.8675 17.25 17.1875 17.25 C16.73375 16.13625 16.28 15.0225 15.8125 13.875 C13.62417033 8.99334151 11.97253544 8.1173309 7.1875 6.25 C6.1975 5.59 5.2075 4.93 4.1875 4.25 C1.90837062 3.79605448 1.90837062 3.79605448 -0.5 3.625 C-1.30824219 3.55023437 -2.11648437 3.47546875 -2.94921875 3.3984375 C-3.56410156 3.34945313 -4.17898437 3.30046875 -4.8125 3.25 C-4.8125 3.91 -4.8125 4.57 -4.8125 5.25 C-6.7925 5.91 -8.7725 6.57 -10.8125 7.25 C-10.8125 5.27 -10.8125 3.29 -10.8125 1.25 C-7.17206737 0.03652246 -3.79194814 0.0275028 0 0 Z " fill="#B5AFA8" transform="translate(26.8125,24.75)"/>
<path d="M0 0 C2.93453261 0.36681658 3.86437246 0.86437246 6 3 C6.125 6.125 6.125 6.125 6 9 C5.34 9 4.68 9 4 9 C5.84188612 11.05270463 5.84188612 11.05270463 8 12 C8.66 12.66 9.32 13.32 10 14 C10.99 14 11.98 14 13 14 C13.66 12.35 14.32 10.7 15 9 C16.1875 10.5625 16.1875 10.5625 17 13 C14.75510204 19.62244898 14.75510204 19.62244898 12 21 C11.54625 21.495 11.0925 21.99 10.625 22.5 C8.73869484 24.24120476 7.54530413 24.75368025 5 25 C4.34 24.34 3.68 23.68 3 23 C3.66 21.68 4.32 20.36 5 19 C5.66 19 6.32 19 7 19 C6.67 18.01 6.34 17.02 6 16 C3.69 15.67 1.38 15.34 -1 15 C-0.67 13.68 -0.34 12.36 0 11 C0.99 11 1.98 11 3 11 C3 10.34 3 9.68 3 9 C2.38125 8.87625 1.7625 8.7525 1.125 8.625 C-1 8 -1 8 -3 6 C-2.63318342 3.06546739 -2.13562754 2.13562754 0 0 Z M1 3 C1 3.99 1 4.98 1 6 C1.66 5.01 2.32 4.02 3 3 C2.34 3 1.68 3 1 3 Z " fill="#C8C1B9" transform="translate(73,12)"/>
<path d="M0 0 C2 3 2 3 2 6 C3.6260287 5.93999894 5.25101549 5.8512115 6.875 5.75 C7.77992187 5.70359375 8.68484375 5.6571875 9.6171875 5.609375 C10.40351562 5.40828125 11.18984375 5.2071875 12 5 C12.66 3.68 13.32 2.36 14 1 C16.97 1 19.94 1 23 1 C24.81642495 4.63284989 25.0894502 6.88529062 25 11 C24.01 11.495 24.01 11.495 23 12 C22.01 12.66 21.02 13.32 20 14 C16.375 13.3125 16.375 13.3125 13 12 C12.67 11.01 12.34 10.02 12 9 C8.7 8.67 5.4 8.34 2 8 C1.67 9.65 1.34 11.3 1 13 C0.34 13 -0.32 13 -1 13 C-1.02686553 11.02090602 -1.04633375 9.04171029 -1.0625 7.0625 C-1.07410156 5.96035156 -1.08570313 4.85820313 -1.09765625 3.72265625 C-1 1 -1 1 0 0 Z M19 4 C18.34 4.66 17.68 5.32 17 6 C17.3185177 8.10820797 17.3185177 8.10820797 18 10 C18.66 10 19.32 10 20 10 C20 9.34 20 8.68 20 8 C20.66 8 21.32 8 22 8 C22 7.34 22 6.68 22 6 C21.34 6 20.68 6 20 6 C19.67 5.34 19.34 4.68 19 4 Z " fill="#DED5D1" transform="translate(54,40)"/>
<path d="M0 0 C0.88429688 -0.01417969 1.76859375 -0.02835937 2.6796875 -0.04296875 C6.94437376 0.35897452 9.31897173 3.20043765 12.125 6.1875 C13.115 7.6725 13.115 7.6725 14.125 9.1875 C13.795 9.8475 13.465 10.5075 13.125 11.1875 C13.785 11.5175 14.445 11.8475 15.125 12.1875 C14.135 13.8375 13.145 15.4875 12.125 17.1875 C11.465 16.8575 10.805 16.5275 10.125 16.1875 C10.455 14.5375 10.785 12.8875 11.125 11.1875 C10.465 11.1875 9.805 11.1875 9.125 11.1875 C9.0425 10.56875 8.96 9.95 8.875 9.3125 C8.30613701 7.03034382 8.30613701 7.03034382 6.1875 5.875 C5.506875 5.648125 4.82625 5.42125 4.125 5.1875 C3.135 5.6825 3.135 5.6825 2.125 6.1875 C2.125 5.1975 2.125 4.2075 2.125 3.1875 C0.475 3.1875 -1.175 3.1875 -2.875 3.1875 C-2.545 4.1775 -2.215 5.1675 -1.875 6.1875 C-4.185 6.5175 -6.495 6.8475 -8.875 7.1875 C-9.205 8.1775 -9.535 9.1675 -9.875 10.1875 C-11.9375 10.875 -11.9375 10.875 -13.875 11.1875 C-13.875 7.21371451 -12.52746343 6.06100205 -9.875 3.1875 C-7.6875 1.9375 -7.6875 1.9375 -5.875 1.1875 C-4.21846314 -0.46903686 -2.26849204 0.01643835 0 0 Z " fill="#D4C4BA" transform="translate(74.875,6.8125)"/>
<path d="M0 0 C3.19218343 0.85124892 5.47399831 1.4915317 7.875 3.8125 C9.20193689 6.39265507 9.23861338 8.13663949 9 11 C6.42033135 12.28983433 3.73407425 13.08864192 1 14 C0.67 14.99 0.34 15.98 0 17 C-1.65 16.67 -3.3 16.34 -5 16 C-4.649375 15.13375 -4.29875 14.2675 -3.9375 13.375 C-2.74334929 10.06069073 -2.74334929 10.06069073 -3.625 6.875 C-3.74875 5.92625 -3.8725 4.9775 -4 4 C-2.0625 1.625 -2.0625 1.625 0 0 Z M1 5 C0.26676204 7.01508358 0.26676204 7.01508358 0 9 C1.32 9.33 2.64 9.66 4 10 C4 9.34 4 8.68 4 8 C4.66 8 5.32 8 6 8 C5.67 6.68 5.34 5.36 5 4 C3.63106761 3.94729537 3.63106761 3.94729537 1 5 Z " fill="#CEC2BC" transform="translate(47,1)"/>
<path d="M0 0 C0.33 0 0.66 0 1 0 C1.05391993 1.79133978 1.09275571 3.58313899 1.125 5.375 C1.14820312 6.37273437 1.17140625 7.37046875 1.1953125 8.3984375 C1 11 1 11 -1 13 C-1.45375 13.495 -1.9075 13.99 -2.375 14.5 C-5.60975794 17.48593041 -8.39520919 18.25308208 -12.75 18.125 C-13.54921875 18.10695313 -14.3484375 18.08890625 -15.171875 18.0703125 C-15.77515625 18.04710938 -16.3784375 18.02390625 -17 18 C-15 16 -15 16 -12.5 15.6875 C-11.2625 15.3471875 -11.2625 15.3471875 -10 15 C-8.62533375 12.52363988 -8.62533375 12.52363988 -8 10 C-12.455 9.01 -12.455 9.01 -17 8 C-16.67 7.01 -16.34 6.02 -16 5 C-8.49230769 4.63076923 -8.49230769 4.63076923 -6 6.5 C-5.505 7.2425 -5.505 7.2425 -5 8 C-4.01 7.67 -3.02 7.34 -2 7 C-0.77030122 3.48809191 -0.77030122 3.48809191 0 0 Z " fill="#DDD3CF" transform="translate(88,68)"/>
<path d="M0 0 C3.3 0 6.6 0 10 0 C10.89694794 3.58779175 11.08304117 6.34618837 11 10 C7.36576791 12.32590854 4.22911669 12.16265833 0 12 C-1.84651134 8.88401212 -2.38079379 6.61754103 -2 3 C-1.34 2.34 -0.68 1.68 0 1 C0 0.67 0 0.34 0 0 Z M4 3 C2.70366379 4.06645115 2.70366379 4.06645115 2.9375 6.5625 C2.958125 7.366875 2.97875 8.17125 3 9 C4.65 8.67 6.3 8.34 8 8 C7.67 6.35 7.34 4.7 7 3 C6.01 3 5.02 3 4 3 Z " fill="#C4BDBA" transform="translate(22,33)"/>
<path d="M0 0 C0.33 0.66 0.66 1.32 1 2 C3.52733235 2.65555119 3.52733235 2.65555119 6 3 C5.67 3.66 5.34 4.32 5 5 C4.2575 5.144375 3.515 5.28875 2.75 5.4375 C-1.30572762 6.26708065 -4.09398247 8.09398247 -7 11 C-7 10.34 -7 9.68 -7 9 C-7.99 9.33 -8.98 9.66 -10 10 C-10.66 9.34 -11.32 8.68 -12 8 C-11.34 8 -10.68 8 -10 8 C-9.67 7.34 -9.34 6.68 -9 6 C-8.34 5.34 -7.68 4.68 -7 4 C-6.54625 3.484375 -6.0925 2.96875 -5.625 2.4375 C-3.7708249 0.79726818 -2.41149165 0.41577442 0 0 Z " fill="#B3A398" transform="translate(23,49)"/>
<path d="M0 0 C2.03833424 1.2739589 4.03852126 2.61061923 6 4 C6 4.66 6 5.32 6 6 C6.66 6.66 7.32 7.32 8 8 C7.7578125 10.1640625 7.7578125 10.1640625 7.125 12.625 C6.92132813 13.44226563 6.71765625 14.25953125 6.5078125 15.1015625 C6.25644531 16.04128906 6.25644531 16.04128906 6 17 C5.34 16.67 4.68 16.34 4 16 C3.64562795 13.70779595 3.55663389 11.44461018 3.44140625 9.12890625 C3.17950453 6.61259298 3.17950453 6.61259298 0 5 C-1.32 5 -2.64 5 -4 5 C-4 4.01 -4 3.02 -4 2 C-2.68 1.34 -1.36 0.68 0 0 Z " fill="#BEB3AD" transform="translate(81,58)"/>
<path d="M0 0 C2.93453261 0.36681658 3.86437246 0.86437246 6 3 C6.125 6.125 6.125 6.125 6 9 C0.56193353 9.36253776 0.56193353 9.36253776 -1.9375 7.75 C-3 6 -3 6 -2.8125 3.9375 C-2 2 -2 2 0 0 Z M1 3 C1 3.99 1 4.98 1 6 C1.66 5.01 2.32 4.02 3 3 C2.34 3 1.68 3 1 3 Z " fill="#DBC9C5" transform="translate(73,12)"/>
<path d="M0 0 C2 3 2 3 3 6 C0.69 6.33 -1.62 6.66 -4 7 C-4.33 7.99 -4.66 8.98 -5 10 C-7.0625 10.6875 -7.0625 10.6875 -9 11 C-9 7.02621451 -7.65246343 5.87350205 -5 3 C-2.8125 1.75 -2.8125 1.75 -1 1 C-0.67 0.67 -0.34 0.34 0 0 Z " fill="#B9AEA5" transform="translate(70,7)"/>
<path d="M0 0 C1.98 0 3.96 0 6 0 C7.81642495 3.63284989 8.0894502 5.88529062 8 10 C7.01 10.495 7.01 10.495 6 11 C5.01 11.66 4.02 12.32 3 13 C2 10 2 10 3 7 C3.66 7 4.32 7 5 7 C5 6.34 5 5.68 5 5 C4.34 5 3.68 5 3 5 C2.87625 4.360625 2.7525 3.72125 2.625 3.0625 C2.315625 2.0415625 2.315625 2.0415625 2 1 C1.34 0.67 0.68 0.34 0 0 Z " fill="#C6C0B9" transform="translate(71,41)"/>
<path d="M0 0 C0.99 0 1.98 0 3 0 C3.268125 0.639375 3.53625 1.27875 3.8125 1.9375 C4.88667752 4.33131686 4.88667752 4.33131686 8 5 C8 5.99 8 6.98 8 8 C5.69 8 3.38 8 1 8 C-0.42944945 5.64561267 -1.08661261 4.51967567 -0.625 1.75 C-0.41875 1.1725 -0.2125 0.595 0 0 Z " fill="#D3CDC8" transform="translate(21,37)"/>
<path d="M0 0 C3.96 0 7.92 0 12 0 C12 0.66 12 1.32 12 2 C9.59454362 3.20272819 8.05003047 3.10071472 5.375 3.0625 C4.14910156 3.04896484 4.14910156 3.04896484 2.8984375 3.03515625 C1.95871094 3.01775391 1.95871094 3.01775391 1 3 C0.67 2.01 0.34 1.02 0 0 Z " fill="#FEF6F1" transform="translate(21,66)"/>
<path d="M0 0 C2 2 2 2 2.1953125 4.3828125 C2.17210937 5.28773437 2.14890625 6.19265625 2.125 7.125 C2.10695312 8.03507812 2.08890625 8.94515625 2.0703125 9.8828125 C2.03550781 10.93082031 2.03550781 10.93082031 2 12 C1.01 11.67 0.02 11.34 -1 11 C-1.02688151 9.35425434 -1.04634123 7.70838587 -1.0625 6.0625 C-1.07410156 5.14597656 -1.08570313 4.22945312 -1.09765625 3.28515625 C-1 1 -1 1 0 0 Z " fill="#FEF1EC" transform="translate(47,40)"/>
<path d="M0 0 C0.33 0.66 0.66 1.32 1 2 C3.52733235 2.65555119 3.52733235 2.65555119 6 3 C5.67 3.66 5.34 4.32 5 5 C2.6875 5.5625 2.6875 5.5625 0 6 C-1.33542939 6.32483418 -2.66961551 6.6550855 -4 7 C-4 5.02 -4 3.04 -4 1 C-2.68 0.67 -1.36 0.34 0 0 Z " fill="#A29792" transform="translate(23,49)"/>
<path d="M0 0 C0.99 0.33 1.98 0.66 3 1 C2.67 2.32 2.34 3.64 2 5 C2.99 5.33 3.98 5.66 5 6 C5 6.66 5 7.32 5 8 C0.25 7.25 0.25 7.25 -2 5 C-1.46428571 1.46428571 -1.46428571 1.46428571 0 0 Z " fill="#FFF8EF" transform="translate(72,13)"/>
<path d="M0 0 C0 1.32 0 2.64 0 4 C-1.98 4.66 -3.96 5.32 -6 6 C-6 4.02 -6 2.04 -6 0 C-3 -1 -3 -1 0 0 Z " fill="#9C9793" transform="translate(22,26)"/>
<path d="M0 0 C2.97 0 5.94 0 9 0 C8.67 0.99 8.34 1.98 8 3 C5.03 3 2.06 3 -1 3 C-0.67 2.01 -0.34 1.02 0 0 Z " fill="#FEEFE9" transform="translate(22,25)"/>
<path d="M0 0 C3.3 0.33 6.6 0.66 10 1 C9.67 1.66 9.34 2.32 9 3 C6.71484375 3.4140625 6.71484375 3.4140625 3.9375 3.625 C3.01839844 3.69976562 2.09929687 3.77453125 1.15234375 3.8515625 C0.44207031 3.90054688 -0.26820312 3.94953125 -1 4 C-0.67 2.68 -0.34 1.36 0 0 Z " fill="#F4ECE9" transform="translate(70,57)"/>
<path d="M0 0 C2.31 0.33 4.62 0.66 7 1 C7.33 1.99 7.66 2.98 8 4 C6.02 4 4.04 4 2 4 C1.34 2.68 0.68 1.36 0 0 Z " fill="#CEBCB8" transform="translate(43,88)"/>
<path d="M0 0 C0.66 1.32 1.32 2.64 2 4 C0.68 4.99 -0.64 5.98 -2 7 C-2.66 6.34 -3.32 5.68 -4 5 C-3 2 -3 2 0 0 Z " fill="#D1C3C0" transform="translate(47,50)"/>
<path d="M0 0 C1 3 1 3 0 6 C-1.65 5.67 -3.3 5.34 -5 5 C-4 2 -4 2 -1.9375 0.8125 C-1.298125 0.544375 -0.65875 0.27625 0 0 Z " fill="#C6B5AB" transform="translate(44,17)"/>
<path d="M0 0 C1.32 0.33 2.64 0.66 4 1 C3.67 3.31 3.34 5.62 3 8 C2.67 6.68 2.34 5.36 2 4 C0.68 3.67 -0.64 3.34 -2 3 C-1.34 2.34 -0.68 1.68 0 1 C0 0.67 0 0.34 0 0 Z " fill="#9A8F8A" transform="translate(22,33)"/>
<path d="M0 0 C0.99 0 1.98 0 3 0 C1.8141763 3.37503669 0.72426311 5.64722731 -2 8 C-2.125 5.125 -2.125 5.125 -2 2 C-1.34 1.34 -0.68 0.68 0 0 Z " fill="#E1D0CC" transform="translate(62,17)"/>
<path d="" fill="#000000" transform="translate(0,0)"/>
<path d="" fill="#000000" transform="translate(0,0)"/>
<path d="" fill="#000000" transform="translate(0,0)"/>
<path d="" fill="#400000" transform="translate(0,0)"/>
<path d="" fill="#000000" transform="translate(0,0)"/>
<path d="" fill="#000000" transform="translate(0,0)"/>
<path d="" fill="#000000" transform="translate(0,0)"/>
<path d="" fill="#404000" transform="translate(0,0)"/>
<path d="" fill="#808000" transform="translate(0,0)"/>
<path d="" fill="#400000" transform="translate(0,0)"/>
<path d="" fill="#000000" transform="translate(0,0)"/>
<path d="" fill="#000000" transform="translate(0,0)"/>
<path d="" fill="#400000" transform="translate(0,0)"/>
<path d="" fill="#808000" transform="translate(0,0)"/>
<path d="" fill="#000000" transform="translate(0,0)"/>
<path d="" fill="#330000" transform="translate(0,0)"/>
<path d="" fill="#808000" transform="translate(0,0)"/>
<path d="" fill="#000000" transform="translate(0,0)"/>
<path d="" fill="#550000" transform="translate(0,0)"/>
<path d="" fill="#404000" transform="translate(0,0)"/>
<path d="" fill="#400000" transform="translate(0,0)"/>
<path d="" fill="#000000" transform="translate(0,0)"/>
<path d="" fill="#000000" transform="translate(0,0)"/>
<path d="" fill="#555500" transform="translate(0,0)"/>
<path d="" fill="#000000" transform="translate(0,0)"/>
<path d="" fill="#400000" transform="translate(0,0)"/>
<path d="" fill="#000000" transform="translate(0,0)"/>
<path d="" fill="#000000" transform="translate(0,0)"/>
<path d="" fill="#555500" transform="translate(0,0)"/>
<path d="" fill="#550000" transform="translate(0,0)"/>
<path d="" fill="#800000" transform="translate(0,0)"/>
<path d="" fill="#404000" transform="translate(0,0)"/>
<path d="" fill="#404000" transform="translate(0,0)"/>
<path d="" fill="#800000" transform="translate(0,0)"/>
<path d="" fill="#000000" transform="translate(0,0)"/>
<path d="" fill="#400000" transform="translate(0,0)"/>
<path d="" fill="#550000" transform="translate(0,0)"/>
<path d="" fill="#404000" transform="translate(0,0)"/>
<path d="" fill="#000000" transform="translate(0,0)"/>
<path d="" fill="#000000" transform="translate(0,0)"/>
<path d="" fill="#000000" transform="translate(0,0)"/>
<path d="" fill="#000000" transform="translate(0,0)"/>
<path d="" fill="#000000" transform="translate(0,0)"/>
<path d="" fill="#400000" transform="translate(0,0)"/>
<path d="" fill="#333300" transform="translate(0,0)"/>
<path d="" fill="#400000" transform="translate(0,0)"/>
<path d="" fill="#555500" transform="translate(0,0)"/>
<path d="" fill="#550000" transform="translate(0,0)"/>
<path d="" fill="#000000" transform="translate(0,0)"/>
<path d="" fill="#400000" transform="translate(0,0)"/>
<path d="" fill="#330000" transform="translate(0,0)"/>
<path d="" fill="#000000" transform="translate(0,0)"/>
<path d="" fill="#000000" transform="translate(0,0)"/>
<path d="" fill="#000000" transform="translate(0,0)"/>
<path d="" fill="#400000" transform="translate(0,0)"/>
<path d="" fill="#000000" transform="translate(0,0)"/>
<path d="" fill="#000000" transform="translate(0,0)"/>
<path d="" fill="#550000" transform="translate(0,0)"/>
<path d="" fill="#000000" transform="translate(0,0)"/>
<path d="" fill="#000000" transform="translate(0,0)"/>
<path d="" fill="#000000" transform="translate(0,0)"/>
<path d="" fill="#404000" transform="translate(0,0)"/>
<path d="" fill="#400000" transform="translate(0,0)"/>
<path d="" fill="#330000" transform="translate(0,0)"/>
<path d="" fill="#550000" transform="translate(0,0)"/>
<path d="" fill="#808000" transform="translate(0,0)"/>
<path d="" fill="#000000" transform="translate(0,0)"/>
<path d="" fill="#555500" transform="translate(0,0)"/>
<path d="" fill="#000000" transform="translate(0,0)"/>
<path d="" fill="#808000" transform="translate(0,0)"/>
<path d="" fill="#404000" transform="translate(0,0)"/>
<path d="" fill="#330000" transform="translate(0,0)"/>
<path d="" fill="#000000" transform="translate(0,0)"/>
<path d="" fill="#400000" transform="translate(0,0)"/>
<path d="" fill="#000000" transform="translate(0,0)"/>
<path d="" fill="#000000" transform="translate(0,0)"/>
<path d="" fill="#404000" transform="translate(0,0)"/>
<path d="" fill="#2A2A00" transform="translate(0,0)"/>
<path d="" fill="#404000" transform="translate(0,0)"/>
<path d="" fill="#400000" transform="translate(0,0)"/>
<path d="" fill="#333300" transform="translate(0,0)"/>
<path d="" fill="#000000" transform="translate(0,0)"/>
<path d="" fill="#808000" transform="translate(0,0)"/>
<path d="" fill="#000000" transform="translate(0,0)"/>
<path d="" fill="#404000" transform="translate(0,0)"/>
<path d="" fill="#800000" transform="translate(0,0)"/>
<path d="" fill="#000000" transform="translate(0,0)"/>
<path d="" fill="#000000" transform="translate(0,0)"/>
<path d="" fill="#000000" transform="translate(0,0)"/>
<path d="" fill="#000000" transform="translate(0,0)"/>
<path d="" fill="#000000" transform="translate(0,0)"/>
<path d="" fill="#000000" transform="translate(0,0)"/>
<path d="" fill="#404000" transform="translate(0,0)"/>
<path d="" fill="#555500" transform="translate(0,0)"/>
<path d="" fill="#000000" transform="translate(0,0)"/>
<path d="" fill="#000000" transform="translate(0,0)"/>
<path d="" fill="#333300" transform="translate(0,0)"/>
<path d="" fill="#550000" transform="translate(0,0)"/>
<path d="" fill="#000000" transform="translate(0,0)"/>
<path d="" fill="#400000" transform="translate(0,0)"/>
<path d="" fill="#800000" transform="translate(0,0)"/>
<path d="" fill="#000000" transform="translate(0,0)"/>
<path d="" fill="#404000" transform="translate(0,0)"/>
<path d="" fill="#404000" transform="translate(0,0)"/>
<path d="" fill="#000000" transform="translate(0,0)"/>
<path d="" fill="#000000" transform="translate(0,0)"/>
<path d="" fill="#404000" transform="translate(0,0)"/>
<path d="" fill="#330000" transform="translate(0,0)"/>
<path d="" fill="#330000" transform="translate(0,0)"/>
<path d="" fill="#000000" transform="translate(0,0)"/>
<path d="" fill="#400000" transform="translate(0,0)"/>
<path d="" fill="#000000" transform="translate(0,0)"/>
<path d="" fill="#404000" transform="translate(0,0)"/>
<path d="" fill="#000000" transform="translate(0,0)"/>
<path d="" fill="#404000" transform="translate(0,0)"/>
<path d="" fill="#400000" transform="translate(0,0)"/>
</svg>
