<svg width="64" height="58" viewBox="0 0 64 58" fill="none" xmlns="http://www.w3.org/2000/svg">
<rect width="64" height="58" rx="29" fill="#FFEAD5"/>
<path d="M38.6667 17.6665H25.3333C21.3333 17.6665 18.6667 19.6665 18.6667 24.3332V33.6665C18.6667 38.3332 21.3333 40.3332 25.3333 40.3332H38.6667C42.6667 40.3332 45.3333 38.3332 45.3333 33.6665V24.3332C45.3333 19.6665 42.6667 17.6665 38.6667 17.6665ZM39.2933 25.7865L35.12 29.1198C34.24 29.8265 33.12 30.1732 32 30.1732C30.88 30.1732 29.7467 29.8265 28.88 29.1198L24.7067 25.7865C24.28 25.4398 24.2133 24.7998 24.5467 24.3732C24.8933 23.9465 25.52 23.8665 25.9467 24.2132L30.12 27.5465C31.1333 28.3598 32.8533 28.3598 33.8667 27.5465L38.04 24.2132C38.4667 23.8665 39.1067 23.9332 39.44 24.3732C39.7867 24.7998 39.72 25.4398 39.2933 25.7865Z" fill="#FD853A"/>
</svg>
