<svg width="57" height="56" viewBox="0 0 57 56" fill="none" xmlns="http://www.w3.org/2000/svg">
<path d="M28.1872 30.743C29.7105 30.743 30.9453 29.515 30.9453 28.0002C30.9453 26.4853 29.7105 25.2573 28.1872 25.2573C26.6639 25.2573 25.429 26.4853 25.429 28.0002C25.429 29.515 26.6639 30.743 28.1872 30.743Z" fill="#61DAFB"/>
<path fill-rule="evenodd" clip-rule="evenodd" d="M15.2184 26.5569C14.5929 27.1184 14.3873 27.6079 14.3873 28.0001C14.3873 28.3922 14.5929 28.8818 15.2184 29.4433C15.8434 30.0044 16.8043 30.5555 18.0771 31.0387C20.6155 32.0026 24.1897 32.6195 28.1872 32.6195C32.1847 32.6195 35.7588 32.0026 38.2973 31.0387C39.57 30.5555 40.5309 30.0044 41.1559 29.4433C41.7814 28.8818 41.987 28.3922 41.987 28.0001C41.987 27.6079 41.7814 27.1184 41.1559 26.5569C40.5309 25.9958 39.57 25.4446 38.2973 24.9614C35.7588 23.9976 32.1847 23.3806 28.1872 23.3806C24.1897 23.3806 20.6155 23.9976 18.0771 24.9614C16.8043 25.4446 15.8434 25.9958 15.2184 26.5569ZM17.3671 23.0916C20.1852 22.0216 24.0109 21.3806 28.1872 21.3806C32.3634 21.3806 36.1891 22.0216 39.0072 23.0916C40.4127 23.6253 41.6192 24.2851 42.492 25.0686C43.3643 25.8517 43.987 26.8404 43.987 28.0001C43.987 29.1597 43.3643 30.1484 42.492 30.9316C41.6192 31.715 40.4127 32.3748 39.0072 32.9085C36.1891 33.9785 32.3634 34.6195 28.1872 34.6195C24.0109 34.6195 20.1852 33.9785 17.3671 32.9085C15.9616 32.3748 14.7551 31.715 13.8824 30.9316C13.01 30.1484 12.3873 29.1597 12.3873 28.0001C12.3873 26.8404 13.01 25.8517 13.8824 25.0686C14.7551 24.2851 15.9616 23.6253 17.3671 23.0916Z" fill="#61DAFB"/>
<path fill-rule="evenodd" clip-rule="evenodd" d="M22.9677 16.1117C22.167 15.8541 21.6351 15.9205 21.2893 16.1191C20.9436 16.3176 20.6198 16.7424 20.4438 17.5608C20.2677 18.3792 20.2682 19.4816 20.4836 20.8184C20.9132 23.485 22.1625 26.8702 24.1606 30.3119C26.1587 33.7535 28.4822 36.522 30.5896 38.2253C31.6461 39.0792 32.6059 39.6308 33.4066 39.8884C34.2073 40.146 34.7392 40.0796 35.085 39.8811C35.4307 39.6826 35.7545 39.2577 35.9305 38.4393C36.1066 37.6209 36.1061 36.5186 35.8907 35.1817C35.4611 32.5152 34.2118 29.1299 32.2137 25.6883C30.2156 22.2466 27.8921 19.4781 25.7847 17.7749C24.7281 16.9209 23.7684 16.3693 22.9677 16.1117ZM27.0454 16.2264C29.3874 18.1193 31.8594 21.0948 33.9482 24.6924C36.0369 28.2901 37.3921 31.9067 37.8695 34.8702C38.1077 36.3483 38.1363 37.718 37.8903 38.8618C37.6443 40.0057 37.0948 41.0333 36.0892 41.6107C35.0835 42.1881 33.9139 42.1475 32.7947 41.7875C31.6756 41.4274 30.4971 40.7179 29.3289 39.7737C26.9868 37.8808 24.5149 34.9054 22.4261 31.3077C20.3374 27.71 18.9822 24.0934 18.5048 21.1299C18.2666 19.6518 18.238 18.2821 18.484 17.1383C18.73 15.9944 19.2795 14.9668 20.2851 14.3894C21.2908 13.8121 22.4604 13.8526 23.5796 14.2127C24.6987 14.5727 25.8772 15.2822 27.0454 16.2264Z" fill="#61DAFB"/>
<path fill-rule="evenodd" clip-rule="evenodd" d="M35.9305 17.5608C35.7545 16.7424 35.4307 16.3175 35.085 16.119C34.7392 15.9205 34.2073 15.8541 33.4066 16.1117C32.6059 16.3693 31.6461 16.9209 30.5896 17.7748C28.4822 19.4781 26.1587 22.2466 24.1606 25.6882C22.1625 29.1299 20.9132 32.5151 20.4836 35.1817C20.2682 36.5185 20.2677 37.6209 20.4438 38.4393C20.6198 39.2577 20.9436 39.6825 21.2893 39.881C21.6351 40.0796 22.167 40.146 22.9677 39.8884C23.7684 39.6308 24.7281 39.0792 25.7847 38.2252C27.8921 36.522 30.2156 33.7535 32.2137 30.3118C34.2118 26.8702 35.4611 23.4849 35.8907 20.8184C36.1061 19.4815 36.1066 18.3792 35.9305 17.5608ZM37.8695 21.1299C37.3921 24.0934 36.0369 27.71 33.9482 31.3077C31.8594 34.9053 29.3874 37.8808 27.0454 39.7737C25.8772 40.7179 24.6987 41.4274 23.5796 41.7874C22.4604 42.1475 21.2908 42.188 20.2851 41.6107C19.2795 41.0333 18.73 40.0057 18.484 38.8618C18.238 37.718 18.2666 36.3483 18.5048 34.8701C18.9822 31.9067 20.3374 28.2901 22.4261 24.6924C24.5149 21.0947 26.9868 18.1193 29.3289 16.2264C30.4971 15.2822 31.6756 14.5727 32.7947 14.2126C33.9139 13.8526 35.0835 13.812 36.0892 14.3894C37.0948 14.9668 37.6443 15.9944 37.8903 17.1382C38.1363 18.2821 38.1077 19.6518 37.8695 21.1299Z" fill="#61DAFB"/>
</svg>
