<svg width="57" height="56" viewBox="0 0 57 56" fill="none" xmlns="http://www.w3.org/2000/svg">
<path d="M34.5012 33.8597C35.6492 33.7408 36.5202 32.7511 36.4806 31.5633C36.4411 30.3756 35.4513 29.4254 34.2636 29.4254H34.1845C32.957 29.465 32.0069 30.4943 32.0465 31.7217C32.0862 32.3156 32.3236 32.8302 32.68 33.1866C31.3339 35.8393 29.2752 37.7792 26.1872 39.4025C24.0889 40.511 21.9115 40.907 19.7341 40.6299C17.9525 40.3923 16.5668 39.6005 15.6957 38.2939C14.4289 36.3539 14.3102 34.2555 15.3791 32.1572C16.1314 30.6527 17.3189 29.5441 18.0712 28.9898C17.9129 28.4752 17.6753 27.6042 17.5565 26.9708C11.8159 31.1279 12.4098 36.7499 14.1518 39.4025C15.4582 41.3821 18.1108 42.6095 21.0405 42.6095C21.8322 42.6095 22.624 42.5302 23.4159 42.3324C28.4835 41.3425 32.3238 38.3335 34.5012 33.8597ZM41.4691 28.9503C38.4602 25.4266 34.0261 23.4867 28.9585 23.4867H28.3251C27.9688 22.7741 27.2165 22.2989 26.3852 22.2989H26.3059C25.0787 22.3385 24.1286 23.3678 24.1681 24.5953C24.2078 25.783 25.1975 26.7332 26.3852 26.7332H26.4643C27.3353 26.6936 28.0875 26.1393 28.4042 25.387H29.1169C32.1258 25.387 34.9762 26.258 37.5497 27.9605C39.5291 29.267 40.9544 30.9695 41.7462 33.0282C42.4192 34.6911 42.3796 36.3143 41.6669 37.7001C40.5585 39.7984 38.6978 40.9466 36.2431 40.9466C34.6595 40.9466 33.1551 40.4714 32.3632 40.1151C31.9278 40.511 31.1359 41.1444 30.5816 41.5405C32.2841 42.3322 34.0261 42.7678 35.6889 42.7678C39.4895 42.7678 42.3005 40.6694 43.3694 38.5711C44.5175 36.2747 44.4383 32.3156 41.4691 28.9503ZM21.3572 34.5326C21.3968 35.7204 22.3865 36.6705 23.5742 36.6705H23.6535C24.8808 36.631 25.8309 35.6016 25.7913 34.3742C25.7518 33.1864 24.7619 32.2363 23.5742 32.2363H23.4951C23.4159 32.2363 23.297 32.2363 23.218 32.2758C21.5948 29.5836 20.9218 26.6539 21.1593 23.4866C21.3176 21.1111 22.1095 19.0523 23.4951 17.3498C24.6432 15.8849 26.8602 15.1722 28.3647 15.1328C32.5612 15.0535 34.3427 20.2796 34.4615 22.378C34.9762 22.4967 35.8472 22.7739 36.4411 22.9719C35.9659 16.5582 32.0069 13.2324 28.2064 13.2324C24.6432 13.2324 21.3572 15.8059 20.0506 19.6067C18.2296 24.6744 19.4172 29.5441 21.6343 33.3845C21.4364 33.6616 21.3176 34.0972 21.3572 34.5327V34.5326Z" fill="#764ABC"/>
</svg>
