<svg width="57" height="56" viewBox="0 0 57 56" fill="none" xmlns="http://www.w3.org/2000/svg">
<path d="M40.0197 16.5606C37.1131 12.4259 31.3719 11.2003 27.2214 13.829L19.9324 18.4472C19.4421 18.7536 18.9846 19.1099 18.5684 19.5103C18.1517 19.9106 17.7783 20.3531 17.454 20.8303C17.1297 21.3076 16.8561 21.817 16.6373 22.3503C16.419 22.8839 16.257 23.4386 16.1537 24.0054C16.0676 24.4805 16.0206 24.9625 16.0143 25.4454C16.0075 25.9289 16.0415 26.4118 16.1151 26.8891C16.1887 27.3669 16.302 27.8379 16.4535 28.2969C16.6049 28.756 16.7945 29.2016 17.0201 29.6295C16.8649 29.864 16.7216 30.1061 16.5908 30.3549C16.4597 30.6037 16.3417 30.8592 16.2368 31.1199C16.1318 31.3806 16.0404 31.6465 15.9626 31.9165C15.8848 32.1865 15.8211 32.4602 15.771 32.7365C15.5626 33.8983 15.5902 35.0897 15.8519 36.2408C15.9824 36.8146 16.1699 37.3744 16.4122 37.9114C16.6545 38.4484 16.9496 38.9604 17.2942 39.4392C20.2008 43.5739 25.9415 44.7995 30.092 42.1707L37.381 37.5718C37.8713 37.2649 38.3277 36.9081 38.7439 36.5072C39.1601 36.1066 39.5333 35.6642 39.8578 35.1871C40.1821 34.7104 40.4557 34.2009 40.6745 33.6676C40.8933 33.1348 41.0557 32.5802 41.1597 32.0136C41.2458 31.5385 41.2923 31.0571 41.2986 30.5741C41.3048 30.0911 41.2709 29.6082 41.1967 29.1309C41.1231 28.6537 41.0098 28.1832 40.8578 27.7241C40.7059 27.2656 40.5163 26.82 40.2907 26.3921C40.4458 26.1579 40.5894 25.9154 40.7205 25.6666C40.851 25.4179 40.9696 25.1624 41.0745 24.9017C41.1795 24.641 41.2714 24.3751 41.3498 24.1051C41.4276 23.8356 41.4923 23.5619 41.543 23.2856C41.6464 22.7061 41.6913 22.1177 41.6777 21.5293C41.6641 20.9409 41.5915 20.3557 41.461 19.7813C41.3304 19.2075 41.143 18.6477 40.9007 18.1107C40.6587 17.5737 40.3636 17.0619 40.0197 16.5829" fill="#FF3E00"/>
<path d="M26.5091 39.839C25.9387 39.9864 25.3489 40.0463 24.7603 40.0166C24.1717 39.9865 23.591 39.8681 23.0385 39.664C22.486 39.4603 21.968 39.1739 21.5022 38.815C21.0368 38.4557 20.6292 38.0281 20.2933 37.5468C20.086 37.2586 19.9084 36.9512 19.7633 36.6281C19.6177 36.3053 19.5048 35.9689 19.4264 35.6238C19.3486 35.2785 19.3048 34.9264 19.2969 34.5727C19.2891 34.2191 19.3168 33.8654 19.3794 33.517C19.3894 33.4604 19.4008 33.4038 19.4134 33.3477C19.4254 33.2911 19.439 33.235 19.4536 33.1794C19.4677 33.1233 19.4833 33.0678 19.5001 33.0122C19.5162 32.9572 19.534 32.9021 19.5523 32.8476L19.6896 32.4306L20.064 32.7084C20.2787 32.8642 20.5001 33.0112 20.7272 33.1483C20.9544 33.2859 21.1873 33.4136 21.4254 33.531C21.663 33.6489 21.9064 33.7569 22.1534 33.854C22.4004 33.9516 22.6516 34.0384 22.9064 34.1147L23.1858 34.1952L23.1607 34.473C23.1473 34.6621 23.1671 34.8521 23.2192 35.0344C23.2448 35.1258 23.2788 35.2141 23.32 35.2992C23.3613 35.3844 23.4098 35.4659 23.4652 35.5428C23.5666 35.6878 23.6897 35.8165 23.8302 35.9245C23.9702 36.0325 24.1263 36.1187 24.2929 36.18C24.4595 36.2413 24.6339 36.2766 24.8114 36.2854C24.9885 36.2948 25.166 36.2766 25.3378 36.2319C25.3775 36.2215 25.4161 36.2096 25.4548 36.1961C25.4934 36.1826 25.5316 36.168 25.5686 36.1514C25.6062 36.1353 25.6428 36.1177 25.6793 36.0985C25.7154 36.0798 25.7504 36.0595 25.7848 36.0377L33.0628 31.419C33.1521 31.3633 33.2352 31.2986 33.3109 31.2258C33.3866 31.1526 33.454 31.0721 33.513 30.9854C33.572 30.8986 33.6211 30.8057 33.6608 30.7086C33.6999 30.6115 33.7292 30.5107 33.748 30.4079C33.7662 30.3025 33.7741 30.196 33.7715 30.089C33.7689 29.9826 33.7553 29.8766 33.7313 29.7723C33.7078 29.6684 33.6733 29.5671 33.6289 29.4695C33.585 29.3724 33.5307 29.2799 33.4681 29.1932C33.3668 29.0483 33.244 28.9201 33.1036 28.8121C32.9631 28.704 32.807 28.6178 32.6409 28.5566C32.4745 28.4953 32.2996 28.4595 32.1223 28.4506C31.9448 28.4418 31.7672 28.46 31.5954 28.5041C31.5563 28.5145 31.5171 28.5264 31.4785 28.5399C31.4398 28.5534 31.4022 28.568 31.3646 28.5841C31.327 28.6007 31.2905 28.6184 31.2544 28.6376C31.2184 28.6563 31.1829 28.677 31.1484 28.6988L28.3536 30.4634C28.2397 30.5351 28.1228 30.6026 28.0037 30.666C27.8841 30.7288 27.7629 30.7875 27.6392 30.8415C27.5154 30.8955 27.3896 30.9448 27.2622 30.989C27.1347 31.0336 27.0057 31.0731 26.8752 31.1079C26.3055 31.2544 25.7169 31.3136 25.1295 31.2834C24.542 31.2533 23.9628 31.1344 23.4114 30.9313C22.8599 30.7278 22.343 30.4416 21.8782 30.0833C21.4134 29.725 21.0061 29.2986 20.6703 28.8183C20.4641 28.5301 20.287 28.2221 20.1424 27.8991C19.9972 27.5761 19.8849 27.2396 19.8071 26.8948C19.7293 26.5494 19.6865 26.1973 19.6792 25.8437C19.6713 25.4906 19.699 25.1369 19.7622 24.789C19.8857 24.1039 20.1514 23.452 20.5424 22.8748C20.9337 22.2976 21.4418 21.808 22.0343 21.4374L29.3348 16.8192C29.4481 16.7475 29.564 16.68 29.6826 16.6166C29.8011 16.5538 29.9223 16.4951 30.045 16.4411C30.168 16.3871 30.2931 16.3379 30.4199 16.2936C30.5463 16.249 30.6748 16.209 30.8048 16.1742C31.3751 16.0272 31.9646 15.967 32.5526 15.9966C33.1412 16.0267 33.7213 16.1451 34.2738 16.3492C34.8263 16.5528 35.3438 16.8394 35.8096 17.1983C36.2749 17.5577 36.6823 17.9855 37.018 18.4669C37.2248 18.7546 37.4029 19.0621 37.5486 19.3851C37.6943 19.7081 37.8071 20.0441 37.8859 20.3894C37.9643 20.7347 38.0081 21.0868 38.016 21.4405C38.0243 21.7941 37.9972 22.1478 37.9345 22.4962C37.9235 22.5534 37.9121 22.6105 37.899 22.6671C37.8865 22.7237 37.8729 22.7803 37.8583 22.8364C37.8442 22.893 37.8285 22.9491 37.8123 23.0046C37.7961 23.0607 37.7794 23.1163 37.7611 23.1713L37.6217 23.5883L37.2499 23.3105C37.0347 23.1532 36.8128 23.0057 36.5851 22.867C36.3574 22.7289 36.1235 22.6001 35.8848 22.4812C35.4071 22.2442 34.9101 22.0475 34.3992 21.8933L34.1193 21.8128L34.1448 21.535C34.1527 21.44 34.1522 21.3444 34.1433 21.2499C34.1349 21.1554 34.1177 21.0614 34.0926 20.9695C34.067 20.8781 34.0341 20.7882 33.9929 20.7025C33.9522 20.6163 33.9036 20.5343 33.8482 20.4564C33.7463 20.3141 33.6233 20.188 33.4832 20.0825C33.3434 19.9765 33.188 19.8925 33.0226 19.8332C32.6902 19.7133 32.3289 19.6972 31.9871 19.787C31.9474 19.7974 31.9082 19.8093 31.8701 19.8223C31.8315 19.8358 31.7933 19.8509 31.7558 19.867C31.7187 19.8831 31.6816 19.9013 31.6456 19.92C31.6095 19.9392 31.574 19.9594 31.5396 19.9812L24.248 24.5916C24.1592 24.6472 24.0762 24.7121 24.001 24.7848C23.9258 24.8575 23.8579 24.938 23.7989 25.0242C23.7404 25.1109 23.6908 25.2033 23.6511 25.3C23.6114 25.3971 23.5822 25.4973 23.5634 25.6001C23.5451 25.7056 23.5372 25.8125 23.5399 25.9195C23.5461 26.1336 23.5946 26.3445 23.6824 26.5401C23.7267 26.6375 23.7804 26.7303 23.8427 26.8174C23.9435 26.9607 24.0657 27.0885 24.2051 27.1954C24.3443 27.3029 24.4991 27.3887 24.6642 27.4499C24.9962 27.5726 25.3578 27.5924 25.7013 27.5065C25.7404 27.4956 25.7796 27.4837 25.8182 27.4702C25.8564 27.4567 25.8945 27.4416 25.9321 27.4255C25.9695 27.4093 26.0063 27.3916 26.0423 27.3725C26.0783 27.3538 26.1138 27.3336 26.1483 27.3118L28.9431 25.5503C29.0575 25.4776 29.174 25.409 29.2935 25.3457C29.4126 25.2818 29.5343 25.2231 29.6586 25.1686C29.7824 25.1146 29.9084 25.0654 30.0361 25.0211C30.1641 24.9764 30.2936 24.937 30.4246 24.9027C30.9949 24.7552 31.5839 24.695 32.1725 24.7241C32.761 24.7537 33.3412 24.8721 33.8937 25.0756C34.4456 25.2792 34.9637 25.5653 35.429 25.9247C35.8948 26.2835 36.3021 26.7109 36.6379 27.1923C36.8447 27.4805 37.0222 27.788 37.1679 28.111C37.3136 28.4338 37.4266 28.7702 37.5053 29.1153C37.5836 29.4601 37.6275 29.8122 37.6358 30.1659C37.6442 30.5201 37.6165 30.8737 37.5543 31.2216C37.4928 31.5633 37.3956 31.8976 37.2645 32.2192C37.1335 32.541 36.969 32.8482 36.7736 33.1358C36.5789 33.4235 36.3543 33.6904 36.1036 33.9319C35.853 34.1734 35.5778 34.3884 35.2822 34.5732L27.9901 39.1915C27.8757 39.2636 27.7588 39.3317 27.6397 39.395C27.5201 39.4584 27.3984 39.5171 27.2742 39.5711C27.1504 39.6256 27.0245 39.6749 26.8966 39.7196C26.7692 39.7642 26.6397 39.8042 26.5091 39.839Z" fill="white"/>
</svg>
