<svg width="57" height="56" viewBox="0 0 57 56" fill="none" xmlns="http://www.w3.org/2000/svg">
<path d="M28.1871 18.6692C24.0389 18.6692 21.4463 20.7427 20.4092 24.8895C21.9649 22.8159 23.7798 22.0386 25.8537 22.5568C27.0372 22.8525 27.8829 23.7111 28.8193 24.6611C30.3443 26.2087 32.1094 27.9998 35.9651 27.9998C40.113 27.9998 42.7059 25.9262 43.7427 21.7791C42.1873 23.8527 40.3725 24.6304 38.2982 24.1122C37.1151 23.8165 36.2693 22.9579 35.3329 22.0079C33.8079 20.4603 32.0425 18.6692 28.1871 18.6692ZM20.4092 27.9998C16.2613 27.9998 13.6684 30.0733 12.6316 34.2204C14.187 32.1469 16.0018 31.3692 18.0761 31.8878C19.2592 32.1838 20.105 33.0421 21.0414 33.9917C22.5664 35.5393 24.3318 37.3308 28.1871 37.3308C32.3354 37.3308 34.928 35.2572 35.9651 31.1101C34.4094 33.1837 32.5945 33.9613 30.5206 33.4428C29.3371 33.1475 28.4914 32.2885 27.555 31.3389C26.03 29.7913 24.2649 27.9998 20.4092 27.9998Z" fill="#06B6D4"/>
</svg>
