<svg width="57" height="56" viewBox="0 0 57 56" fill="none" xmlns="http://www.w3.org/2000/svg">
<path d="M43.5986 17.0491L29.171 43.1494C28.8731 43.6883 28.1078 43.6914 27.8054 43.1552L13.0918 17.0516C12.7624 16.4673 13.2563 15.7594 13.9109 15.8779L28.354 18.4895C28.4461 18.5061 28.5405 18.506 28.6325 18.489L42.7735 15.8815C43.4259 15.7612 43.9221 16.4636 43.5986 17.0491Z" fill="url(#paint0_linear_1_5512)"/>
<path d="M35.2339 12.452L24.5571 14.5685C24.4718 14.5854 24.3945 14.6306 24.3373 14.6968C24.2801 14.763 24.2463 14.8466 24.2411 14.9344L23.5844 26.1562C23.5808 26.2178 23.5914 26.2793 23.6154 26.336C23.6394 26.3927 23.6762 26.4429 23.7227 26.4827C23.7693 26.5225 23.8243 26.5508 23.8836 26.5653C23.9428 26.5798 24.0046 26.5801 24.0639 26.5663L27.0365 25.8722C27.3146 25.8073 27.566 26.0551 27.5087 26.3381L26.6256 30.7133C26.5662 31.0077 26.8394 31.2595 27.1236 31.1721L28.9597 30.6078C29.2443 30.5204 29.5178 30.7729 29.4576 31.0676L28.0542 37.94C27.9663 38.3699 28.5315 38.6043 28.7672 38.2358L28.9247 37.9896L37.6247 20.4242C37.7705 20.1301 37.5191 19.7947 37.2 19.8571L34.1401 20.4545C33.8526 20.5106 33.608 20.2397 33.6891 19.9552L35.6862 12.9512C35.7674 12.666 35.5218 12.3949 35.234 12.452H35.2339Z" fill="url(#paint1_linear_1_5512)"/>
<defs>
<linearGradient id="paint0_linear_1_5512" x1="12.7326" y1="17.9836" x2="28.5277" y2="39.1872" gradientUnits="userSpaceOnUse">
<stop stop-color="#41D1FF"/>
<stop offset="1" stop-color="#BD34FE"/>
</linearGradient>
<linearGradient id="paint1_linear_1_5512" x1="29.6925" y1="13.0267" x2="32.9672" y2="35.2304" gradientUnits="userSpaceOnUse">
<stop stop-color="#FFEA83"/>
<stop offset="0.083" stop-color="#FFDD35"/>
<stop offset="1" stop-color="#FFA800"/>
</linearGradient>
</defs>
</svg>
