<?xml version="1.0" encoding="UTF-8"?>
<svg version="1.1" xmlns="http://www.w3.org/2000/svg" width="90" height="90">
<path d="M0 0 C1.52220887 3.53853791 1.09759978 7.45922327 1.0625 11.25 C1.05347656 12.51328125 1.04445313 13.7765625 1.03515625 15.078125 C1.02355469 16.04234375 1.01195313 17.0065625 1 18 C2.485 18.495 2.485 18.495 4 19 C4.495 20.485 4.495 20.485 5 22 C6.2375 21.896875 7.475 21.79375 8.75 21.6875 C12.22084881 21.6875 12.77640797 21.80912875 15.5625 24.1875 C17 27 17 27 16.75 29.8125 C16.5025 30.534375 16.255 31.25625 16 32 C16.66 32.309375 17.32 32.61875 18 32.9375 C20.41052331 35.42335217 20.29629067 36.20176456 20.3125 39.5625 C20.23210436 42.13939188 20.15716511 43.68566978 19 46 C18.34 46 17.68 46 17 46 C17 47.32 17 48.64 17 50 C15.93252903 53.36663923 14.91431939 55.91834329 12 58 C8.9375 58.625 8.9375 58.625 6 59 C3.83333333 59.83333333 3.83333333 59.83333333 3 62 C-3.0546875 62.1953125 -3.0546875 62.1953125 -5 62 C-6.33333333 60.66666667 -7.66666667 59.33333333 -9 58 C-9.86625 58.3403125 -9.86625 58.3403125 -10.75 58.6875 C-11.86375 58.8421875 -11.86375 58.8421875 -13 59 C-14.49279394 57.76682239 -15.98193713 56.52651963 -17.40625 55.21484375 C-19.76772612 53.41479701 -22.09644496 53.20739679 -25 53 C-24.505 55.475 -24.505 55.475 -24 58 C-22.35 58.33 -20.7 58.66 -19 59 C-18.505 60.98 -18.505 60.98 -18 63 C-29.22 63 -40.44 63 -52 63 C-51.67 61.68 -51.34 60.36 -51 59 C-49.33333333 58.33333333 -47.66666667 57.66666667 -46 57 C-45.30732801 54.9801631 -45.30732801 54.9801631 -45 53 C-46.02939697 53.01571045 -46.02939697 53.01571045 -47.07958984 53.03173828 C-50.17802289 53.07321874 -53.27639761 53.09930069 -56.375 53.125 C-57.45523438 53.14175781 -58.53546875 53.15851563 -59.6484375 53.17578125 C-60.6796875 53.18222656 -61.7109375 53.18867187 -62.7734375 53.1953125 C-64.20308838 53.21102295 -64.20308838 53.21102295 -65.66162109 53.22705078 C-68 53 -68 53 -70 51 C-70.26069641 48.88148499 -70.26069641 48.88148499 -70.2746582 46.23071289 C-70.28419022 45.23950943 -70.29372223 44.24830597 -70.30354309 43.22706604 C-70.30263168 42.15311081 -70.30172028 41.07915558 -70.30078125 39.97265625 C-70.30506638 38.87279892 -70.3093515 37.77294159 -70.31376648 36.63975525 C-70.31951746 34.31038095 -70.32000442 31.9809887 -70.31567383 29.65161133 C-70.31251599 26.08058115 -70.33595698 22.51038064 -70.36132812 18.93945312 C-70.36360118 16.67968855 -70.36430459 14.41992174 -70.36328125 12.16015625 C-70.372491 11.08822525 -70.38170074 10.01629425 -70.39118958 8.91188049 C-70.38496078 7.91752487 -70.37873199 6.92316925 -70.37231445 5.89868164 C-70.37294388 5.02313126 -70.3735733 4.14758087 -70.3742218 3.24549866 C-70 1 -70 1 -68.85549927 -0.77616882 C-66.19196354 -2.5329564 -64.11724946 -2.42179308 -60.93969727 -2.47998047 C-59.69152725 -2.5094577 -58.44335724 -2.53893494 -57.15736389 -2.56930542 C-55.79372055 -2.5860343 -54.43006736 -2.60197584 -53.06640625 -2.6171875 C-51.66778581 -2.64165911 -50.26918018 -2.66699072 -48.87059021 -2.69314575 C-45.9394168 -2.74452626 -43.0083384 -2.78516964 -40.0769043 -2.81835938 C-36.32258862 -2.86176598 -32.56935469 -2.93215719 -28.81562901 -3.01067924 C-25.92726757 -3.06803963 -23.03882959 -3.11082955 -20.15015984 -3.14926529 C-18.76622089 -3.1694704 -17.38234075 -3.19424406 -15.99856758 -3.22369003 C-14.06251965 -3.26274123 -12.12606999 -3.28003892 -10.18969727 -3.29638672 C-9.08844009 -3.31176483 -7.98718292 -3.32714294 -6.85255432 -3.34298706 C-3.6465941 -2.95750698 -2.3090902 -2.21184412 0 0 Z M-67 3 C-67 14.55 -67 26.1 -67 38 C-52.48 38 -37.96 38 -23 38 C-22.505 37.01 -22.505 37.01 -22 36 C-21.34 36 -20.68 36 -20 36 C-20 35.01 -20 34.02 -20 33 C-19.34 32.67 -18.68 32.34 -18 32 C-18.495 30.515 -18.495 30.515 -19 29 C-17.25204342 26.28095643 -15.99501928 24.39197729 -12.9375 23.1875 C-11 23 -11 23 -8 23 C-7.34 22.34 -6.68 21.68 -6 21 C-5.46761719 20.62230469 -4.93523437 20.24460937 -4.38671875 19.85546875 C-2.20655404 16.93834696 -2.68558128 13.79788344 -2.8125 10.3125 C-2.82603516 9.61060547 -2.83957031 8.90871094 -2.85351562 8.18554688 C-2.88879818 6.45670171 -2.94260417 4.72825235 -3 3 C-6.13530103 1.95489966 -8.32735017 1.87318504 -11.6171875 1.87060547 C-12.76848145 1.86745331 -13.91977539 1.86430115 -15.10595703 1.86105347 C-16.9716333 1.86408981 -16.9716333 1.86408981 -18.875 1.8671875 C-20.15101074 1.86623077 -21.42702148 1.86527405 -22.74169922 1.86428833 C-25.44176615 1.86360729 -28.14174282 1.86495566 -30.84179688 1.86962891 C-34.3019779 1.87532602 -37.76208135 1.87204531 -41.22225952 1.86605644 C-44.5231758 1.86157331 -47.82408271 1.86471254 -51.125 1.8671875 C-52.36878418 1.86516327 -53.61256836 1.86313904 -54.89404297 1.86105347 C-56.04533691 1.86420563 -57.19663086 1.86735779 -58.3828125 1.87060547 C-59.39746582 1.87140106 -60.41211914 1.87219666 -61.45751953 1.87301636 C-64.12388761 1.89212293 -64.12388761 1.89212293 -67 3 Z M-3 22 C-3 23.65 -3 25.3 -3 27 C-3.5775 26.79375 -4.155 26.5875 -4.75 26.375 C-7.55468794 25.90755201 -8.55771553 26.66068271 -11 28 C-11.99 28 -12.98 28 -14 28 C-14 30.64 -14 33.28 -14 36 C-14.99 36.495 -14.99 36.495 -16 37 C-15.67 37.66 -15.34 38.32 -15 39 C-16.32 39.33 -17.64 39.66 -19 40 C-17.74458443 42.51083114 -16.49936512 42.87125446 -14 44 C-14.33 44.99 -14.66 45.98 -15 47 C-14.55849551 49.64653258 -14.55849551 49.64653258 -13 52 C-10.07416306 53.47562227 -10.07416306 53.47562227 -7 54 C-6.34 53.67 -5.68 53.34 -5 53 C-4.67 53.99 -4.34 54.98 -4 56 C-3.67 56.66 -3.34 57.32 -3 58 C-2.34 58 -1.68 58 -1 58 C-1 57.34 -1 56.68 -1 56 C0.485 55.505 0.485 55.505 2 55 C2 54.34 2 53.68 2 53 C2.99 53.33 3.98 53.66 5 54 C7.35188447 53.40206327 9.68925595 52.74118205 12 52 C11.67 51.34 11.34 50.68 11 50 C11.33 49.01 11.66 48.02 12 47 C11.67 46.34 11.34 45.68 11 45 C11.66 45 12.32 45 13 45 C13.66 44.01 14.32 43.02 15 42 C15.66 41.67 16.32 41.34 17 41 C17 40.34 17 39.68 17 39 C16.360625 38.71125 15.72125 38.4225 15.0625 38.125 C13 37 13 37 12 35 C11.64587656 33.67203709 11.31478446 32.33783393 11 31 C10.814375 30.2575 10.62875 29.515 10.4375 28.75 C10.293125 28.1725 10.14875 27.595 10 27 C9.01 27.495 9.01 27.495 8 28 C6.0546875 27.44140625 6.0546875 27.44140625 3.875 26.5625 C3.15054688 26.27503906 2.42609375 25.98757812 1.6796875 25.69140625 C1.12539062 25.46324219 0.57109375 25.23507813 0 25 C0 24.01 0 23.02 0 22 C-0.99 22 -1.98 22 -3 22 Z M-67 41 C-67.4472136 46.47825081 -67.4472136 46.47825081 -66 49 C-50.16 49 -34.32 49 -18 49 C-18 48.34 -18 47.68 -18 47 C-19.32 46.67 -20.64 46.34 -22 46 C-22.495 43.525 -22.495 43.525 -23 41 C-37.52 41 -52.04 41 -67 41 Z M-15 51 C-14 53 -14 53 -14 53 Z M-40 53 C-39.67 53.99 -39.34 54.98 -39 56 C-39.99 56.495 -39.99 56.495 -41 57 C-39.96593327 58.25949049 -39.96593327 58.25949049 -37.71484375 58.09765625 C-36.79832031 58.08605469 -35.88179687 58.07445312 -34.9375 58.0625 C-34.01839844 58.05347656 -33.09929688 58.04445313 -32.15234375 58.03515625 C-31.44207031 58.02355469 -30.73179688 58.01195312 -30 58 C-29.67 57.34 -29.34 56.68 -29 56 C-29.66 56 -30.32 56 -31 56 C-30.67 55.01 -30.34 54.02 -30 53 C-33.3 53 -36.6 53 -40 53 Z " fill="#C7C7C7" transform="translate(70,15)"/>
<path d="M0 0 C9.80989656 -0.60889013 9.80989656 -0.60889013 13.6875 1.375 C15.7072038 5.41440759 15.66426023 9.56644913 15 14 C14.34 14.66 13.68 15.32 13 16 C12.33097656 16.78890625 12.33097656 16.78890625 11.6484375 17.59375 C9.00049296 19.85266003 6.58714524 19.5392392 3.23046875 19.40234375 C1 19 1 19 -2.0625 17.0625 C-4.63808976 12.99140651 -4.99353715 9.70391484 -4 5 C-2 2.5 -2 2.5 0 1 C0 0.67 0 0.34 0 0 Z M0 7 C0.26656572 9.93443402 0.26656572 9.93443402 1 13 C3.81509993 15.2773501 3.81509993 15.2773501 7 15 C8.62514468 13.54166642 8.62514468 13.54166642 10 12 C10.33 12 10.66 12 11 12 C11.31775902 8.34883694 11.31775902 8.34883694 9.6875 5.1875 C5.95018147 2.55753511 3.35192016 4.82578152 0 7 Z " fill="#B8B8B8" transform="translate(63,46)"/>
<path d="M0 0 C5.39308553 0.47586049 10.20345011 3.20345011 14 7 C13.6875 9.6875 13.6875 9.6875 12 13 C8.5228832 15.17182689 4.9293786 16.82644116 1 18 C0.01 17.67 -0.98 17.34 -2 17 C-1.8125 14.6875 -1.8125 14.6875 -1 12 C1.5625 10.1875 1.5625 10.1875 4 9 C2.71034824 7.62437146 1.37310707 6.29233607 0 5 C-0.66 5 -1.32 5 -2 5 C-1.125 1.125 -1.125 1.125 0 0 Z " fill="#A1A1A1" transform="translate(42,26)"/>
<path d="M0 0 C0.556875 0.226875 1.11375 0.45375 1.6875 0.6875 C2.0175 2.0075 2.3475 3.3275 2.6875 4.6875 C0.7075 6.0075 -1.2725 7.3275 -3.3125 8.6875 C-0.60246707 11.36081713 -0.60246707 11.36081713 2.6875 12.6875 C2.6875 14.3375 2.6875 15.9875 2.6875 17.6875 C-2.7681335 17.05312401 -6.40945233 15.59054767 -10.3125 11.6875 C-10.9725 11.3575 -11.6325 11.0275 -12.3125 10.6875 C-12.9375 8.125 -12.9375 8.125 -13.3125 5.6875 C-12.425625 5.254375 -11.53875 4.82125 -10.625 4.375 C-7.35951685 2.79251078 -7.35951685 2.79251078 -4.6875 0.9375 C-2.3125 -0.3125 -2.3125 -0.3125 0 0 Z " fill="#A6A6A6" transform="translate(27.3125,26.3125)"/>
<path d="M0 0 C0.66 0.33 1.32 0.66 2 1 C2 3.97 2 6.94 2 10 C1.34 10 0.68 10 0 10 C-0.06058594 10.90363281 -0.12117188 11.80726562 -0.18359375 12.73828125 C-0.26738281 13.91777344 -0.35117187 15.09726562 -0.4375 16.3125 C-0.51871094 17.48425781 -0.59992187 18.65601563 -0.68359375 19.86328125 C-1 23 -1 23 -2 26 C-3.65 25.67 -5.3 25.34 -7 25 C-6.71512349 22.95737483 -6.42177949 20.91592973 -6.125 18.875 C-5.96257813 17.73804687 -5.80015625 16.60109375 -5.6328125 15.4296875 C-3.41620112 3.41620112 -3.41620112 3.41620112 0 0 Z " fill="#C5C5C5" transform="translate(37,22)"/>
<path d="" fill="#000000" transform="translate(0,0)"/>
<path d="" fill="#000000" transform="translate(0,0)"/>
<path d="" fill="#000000" transform="translate(0,0)"/>
<path d="" fill="#000000" transform="translate(0,0)"/>
<path d="" fill="#000000" transform="translate(0,0)"/>
<path d="" fill="#000000" transform="translate(0,0)"/>
<path d="" fill="#000000" transform="translate(0,0)"/>
<path d="" fill="#000000" transform="translate(0,0)"/>
<path d="" fill="#000000" transform="translate(0,0)"/>
<path d="" fill="#000000" transform="translate(0,0)"/>
<path d="" fill="#000000" transform="translate(0,0)"/>
<path d="" fill="#000000" transform="translate(0,0)"/>
<path d="" fill="#000000" transform="translate(0,0)"/>
<path d="" fill="#000000" transform="translate(0,0)"/>
<path d="" fill="#000000" transform="translate(0,0)"/>
<path d="" fill="#000000" transform="translate(0,0)"/>
<path d="" fill="#000000" transform="translate(0,0)"/>
<path d="" fill="#000000" transform="translate(0,0)"/>
<path d="" fill="#000000" transform="translate(0,0)"/>
<path d="" fill="#000000" transform="translate(0,0)"/>
<path d="" fill="#000000" transform="translate(0,0)"/>
<path d="" fill="#000000" transform="translate(0,0)"/>
<path d="" fill="#000000" transform="translate(0,0)"/>
<path d="" fill="#000000" transform="translate(0,0)"/>
<path d="" fill="#000000" transform="translate(0,0)"/>
<path d="" fill="#000000" transform="translate(0,0)"/>
<path d="" fill="#000000" transform="translate(0,0)"/>
<path d="" fill="#000000" transform="translate(0,0)"/>
<path d="" fill="#000000" transform="translate(0,0)"/>
<path d="" fill="#000000" transform="translate(0,0)"/>
<path d="" fill="#000000" transform="translate(0,0)"/>
<path d="" fill="#000000" transform="translate(0,0)"/>
<path d="" fill="#000000" transform="translate(0,0)"/>
<path d="" fill="#000000" transform="translate(0,0)"/>
<path d="" fill="#000000" transform="translate(0,0)"/>
<path d="" fill="#000000" transform="translate(0,0)"/>
<path d="" fill="#000000" transform="translate(0,0)"/>
<path d="" fill="#000000" transform="translate(0,0)"/>
<path d="" fill="#000000" transform="translate(0,0)"/>
<path d="" fill="#000000" transform="translate(0,0)"/>
<path d="" fill="#000000" transform="translate(0,0)"/>
<path d="" fill="#000000" transform="translate(0,0)"/>
<path d="" fill="#000000" transform="translate(0,0)"/>
</svg>
