<svg width="57" height="56" viewBox="0 0 57 56" fill="none" xmlns="http://www.w3.org/2000/svg">
<path d="M28.5 12.4443L14.7514 20.2221V35.7777L28.5 43.5554L42.2485 35.7777V20.2221L28.5 12.4443Z" fill="white"/>
<path d="M17.2067 35.2409L28.0463 41.3724V36.5968L21.2926 32.8816L17.2067 35.2409ZM16.4652 34.5694V21.7465L20.4319 24.0357V32.2776L16.4652 34.5694ZM39.8374 35.2409L28.9978 41.3724V36.5968L35.7515 32.8816L39.8374 35.2409ZM40.5789 34.5694V21.7465L36.6123 24.0357V32.2776L40.5789 34.5694ZM40.1148 20.9168L28.9978 14.6272V19.2446L36.1197 23.162L36.1741 23.1931L40.1148 20.9168ZM16.9293 20.9168L28.0463 14.6272V19.2446L20.9245 23.162L20.87 23.1931L16.9293 20.9168Z" fill="#8ED6FB"/>
<path d="M28.9977 35.5106L35.6607 31.8472V24.588L28.9977 28.4354V35.5106ZM28.0463 35.5106L21.3833 31.8472V24.588L28.0463 28.4354V35.5106ZM35.2096 23.748L28.5207 20.0691L21.8318 23.748L28.5207 27.6109L35.2096 23.748Z" fill="#1C78C0"/>
</svg>
